<svg version="1.2" xmlns="http://www.w3.org/2000/svg" viewBox="0 0 74 38" width="74" height="38"><style>.a{fill:#fe5c00}.b{fill:#231f20}</style><path class="a" d="m28.7 6.2h-13.3c-3.6 0-6.8 2.2-8.1 5.6l-7.3 20h19.3l-0.5 1.4 6.6 4.8h9.9c4.3 0 8.3-2.7 9.8-6.9l0.1-0.3 1.5 1h11.3c3.7 0 6.9-2.3 8.2-5.7l7.2-19.9h-19.2l0.5-1.4-6.6-4.8h-10c-4 0-8.1 2.5-9.4 6.2z"/><path class="b" d="m9 12.5l-3.3 9.1 2 1.4h-2.5l-2.6 6.9h19.3l-0.9 2.6 4.9 3.6h9.4c3.6 0 6.9-2.3 8.1-5.7l0.9-2.5 3 2h10.7c2.9 0 5.4-1.8 6.4-4.5l6.3-17.4h-19.2l0.9-2.5-4.9-3.6h-9.3c-3.6 0-6.8 2.2-8.1 5.6l-0.1 0.5h-14.4c-2.9 0-5.6 1.8-6.6 4.5z"/><path class="a" d="m48.7 10l1.4-3.8-3.3-2.4h-8.6c-2.8 0-5.3 1.7-6.2 4.4l-3.3 8.9 9.1 7.2-1.8 5.2h-6l1.6-4.5h-25l-1.2 3h19.3l-1.4 3.8 3.3 2.4h8.7c2.7 0 5.2-1.7 6.1-4.3l3.3-9-9-7.2 1.9-5.2h5.8l-1.6 4.6h25l1.2-3.1h-19.3zm-27.3 13c1.8 0 3.5-1.1 4.1-2.8l3-8.2-2.8-2.1h-10c-2.2 0-4.1 1.3-4.9 3.4l-2.8 7.6 2.9 2.1h10.5zm-4.7-11.2h6.6l-3.4 9.3h-6.5zm40.7 12.6c-0.4 1-1.3 1.7-2.4 1.7h-4.8l4-11.1h-5.3l-3.9 11 2.9 2.1h9.8c2.2 0 4.1-1.4 4.9-3.4l3.5-9.7h-5.3l-3.4 9.4z"/></svg>