<svg xmlns="http://www.w3.org/2000/svg" viewBox="0 0 120.47 136.01"><defs><style>.cls-1{fill:#ba9f67;}.cls-2{fill:#c8102e;}.cls-3{fill:#49a942;}.cls-4{fill:#fff;}</style></defs><g id="Layer_2" data-name="Layer 2"><g id="ARTWORK"><path class="cls-1" d="M118,63.79a101.27,101.27,0,0,0-15.45-16.26,13.28,13.28,0,0,0-7.26-3h-.1c0-.52,0-1,0-1.43A1.33,1.33,0,0,0,93.42,42a15.33,15.33,0,0,1-4.9.85A12,12,0,0,0,86,36.24a1.31,1.31,0,0,0-2-.1,18.09,18.09,0,0,1-5.22,3.62,11.32,11.32,0,0,0-5.18,4.67H72.52c-.1-1-.2-2.06-.3-3.07C76.4,39.7,83.68,36,88.85,28.92l0,0,.32-.45.28-.39.13-.2h0c1.65-2.51,4.71-8.45.53-13.24-2-2.24-5-3.43-8.83-3.43a25,25,0,0,0-7.36,1.23c-.87.24-1.77.52-2.67.84l-.69-7C70.43,4.79,69.41,0,62.45,0c-.55,0-1.14,0-1.74.09-5.77.57-8.13,3-9.52,5.11l-.28.38a12.44,12.44,0,0,0-6.25-1.76c-.38,0-.78,0-1.18.06-6.23.62-9.23,4.28-8.69,10.61l.21,2.1a7.64,7.64,0,0,0-6.23-3.24h0c-.24,0-.47,0-.7,0a7.82,7.82,0,0,0-6,3.83,16.27,16.27,0,0,0-2.15,12,6.52,6.52,0,0,0-4.74-2.85,17.73,17.73,0,0,0-1.79-.09c-.48,0-1,0-1.46.06A13,13,0,0,0,.19,41.48C1.8,50.76,6.6,68.05,20.73,79.68a13.9,13.9,0,0,0,8.84,3.17,14.19,14.19,0,0,0,2.59-.24,45,45,0,0,0,10.62-3.25l.37.53a16.55,16.55,0,0,1,2.78,5.94,30.23,30.23,0,0,0,3.39,7.3A156.86,156.86,0,0,0,64.44,126.7,19.28,19.28,0,0,0,80.87,136a23.65,23.65,0,0,0,4.38-.52c11-2.1,15-13.58,15.13-14.07l.21-.65a1.32,1.32,0,0,0-.86-1.68l-.65-.2c-7.48-2.29-14.38-15-20-36.83-.36-1.41-.73-2.9-1.08-4.42a49.84,49.84,0,0,0,14.37-8.48A44.77,44.77,0,0,1,102.53,79.7,7.88,7.88,0,0,0,108.91,83a7.74,7.74,0,0,0,2.24-.33,15.24,15.24,0,0,0,4.16-1.94,11.48,11.48,0,0,0,5-7.74A12,12,0,0,0,118,63.79ZM36.38,57.07s-.08.87-.07,2.37a18,18,0,0,1-4.9,1.8C29.24,58.06,24.5,49.7,21.28,33.56a14.85,14.85,0,0,0,8.93,7.52l.28.1.4.13.18,0,.58.17.18,0,.78.2a28.6,28.6,0,0,0,4.76.65,8.56,8.56,0,0,0,.47,3.28,18.59,18.59,0,0,0,.35,4.49A19.43,19.43,0,0,0,39,53,5.8,5.8,0,0,0,36.38,57.07Z"/><path d="M116.42,65a99.83,99.83,0,0,0-15.13-15.94,11.28,11.28,0,0,0-8.22-2.51,11.21,11.21,0,0,0,.26-2.47,24.17,24.17,0,0,1-6.72.91h-.25a12,12,0,0,0-1.59-7s-.83,1.85-4.34,3.38a9.63,9.63,0,0,0-5.36,5.13,11.15,11.15,0,0,0-2,.2,9.36,9.36,0,0,0-2.29-.38c-.23-2.1-.44-4.2-.62-6.27,3.21-1.12,11.53-4.63,17.13-12.28l.38-.51h0c.07-.1.15-.2.21-.3,4.1-6.05,2-9.69.81-11-2.66-3.05-7.95-3.54-14.14-1.59a41,41,0,0,0-4.34,1.46l-.6.23-1-9.56c-.19-1.91-1.44-5-7.7-4.39-4.78.47-6.78,2.34-8.09,4.28L52,7.48a.89.89,0,0,1-1.43.19l-.15-.09a10.72,10.72,0,0,0-6.73-1.72c-3.25.32-7.51,1.54-6.91,8.43l1,10.31-.15-.05c-1.5-.72-2.63-2.73-3.12-4.07l-.09-.29-.15-.49a.3.3,0,0,0,0-.1,5.74,5.74,0,0,0-5-4.24,4.87,4.87,0,0,0-1,0,5.82,5.82,0,0,0-4.45,2.86c-1.74,3-3.26,6.82-1.33,12.91a12.23,12.23,0,0,0,.63,1.59,13.71,13.71,0,0,0,.8,1.4s0,0,0,0a12.63,12.63,0,0,0,5.18,4.3l.17.09c.39.18.8.33,1.22.48l.64.25.78.22c.38.11.75.23,1.14.32a28.53,28.53,0,0,0,6.29.67h.47c-1.55,1.78-.42,4.62-.29,4.92a16.19,16.19,0,0,0,1.71,8.5c-1.48.91-2.68,2-2.86,3.23h0v0a.57.57,0,0,1,0,.13c0,.42-.08,1.59,0,3.22a19.88,19.88,0,0,1-7.8,2.89C28.73,61.06,22.65,52,19,32a4.53,4.53,0,0,0-4-3.68,16.31,16.31,0,0,0-2.88,0A11,11,0,0,0,2.15,41.14c1.56,9,6.21,25.79,19.84,37a11.9,11.9,0,0,0,9.8,2.51,41.29,41.29,0,0,0,11.83-3.93c.39.6.74,1.1,1.06,1.56a19,19,0,0,1,3.1,6.58,27.17,27.17,0,0,0,3.15,6.76,155.48,155.48,0,0,0,15.2,34A17.4,17.4,0,0,0,80.87,134a21.32,21.32,0,0,0,4-.49c10-1.91,13.62-12.75,13.62-12.75-8.69-2.66-15.78-16.68-21.3-38.23-.51-2-1-4.12-1.48-6.23a47,47,0,0,0,16.55-9.64c1.9,1.15,6.57,4.47,11.88,11.85A5.87,5.87,0,0,0,108.91,81a5.64,5.64,0,0,0,1.67-.25,13.26,13.26,0,0,0,3.63-1.69,9.5,9.5,0,0,0,4.15-6.41A9.92,9.92,0,0,0,116.42,65Z"/><path class="cls-1" d="M86.89,20.16c-3.59-1.73-11.13.35-20,5.65-1.79,1.07-3.46,2.18-5.07,3.26-4.67,3.11-9.08,6-15.79,7.44C40,37.75,28.1,38,25.61,30.14c-1.61-5.08-.32-7.95,1-10.24a2.53,2.53,0,0,1,1.92-1.24h.22a2.63,2.63,0,0,1,2.35,2l.15.48c1.37,4.51,2.66,8.77,9.13,10.34-3.42.28-8.95-1.6-10.39-5.66,0,0-1.62,7,7.87,8,9.68.73,16.35-3.85,21.92-7.72,1.42-1,2.86-2,4.41-3s3.31-1.95,5.09-2.94c8.26-4.56,14.72-4.5,16.84-2.08A3.22,3.22,0,0,1,86.89,20.16ZM40.06,14c-.26-3.05.25-4.47,3.94-4.84l.68,0a6.62,6.62,0,0,1,3,.75c.35.18,2.59,1.62-.44,7.84,0,0,3.43,0,6.57-5.79,1.53-2.81,1.76-5.68,7.41-6.56,3.9-.39,4,1,4.08,1.42L66.42,18c-2.09,1.18-4.05,2.34-5.94,3.47-7.65,4.57-13.3,9-18.92,7.64Zm18.69,4.94.32,0A5.74,5.74,0,0,0,63.65,16s-1.57-.26-1-2.71c.67-3.13,0-4.22,0-4.22s-.81,1.69-5.75,5.7C54.82,16.41,56.08,19.12,58.75,18.93Z"/><path class="cls-2" d="M48.06,73.44l.5-.1L47,75.74a3.62,3.62,0,0,1-.22-.32Zm1.16-.23-2,3,.15.22.07.1,2.27-3.38h0l-.51.1ZM50.39,73l-2.64,3.93a3.62,3.62,0,0,1,.22.32l2.92-4.35Zm1.16-.23-3.29,4.91.21.34,3.59-5.35Zm2.38,12.09-1.64,2.45c.06.13.11.26.18.39l2-2.94Zm-2.33.46-.11.16c0,.14.11.27.17.41l.45-.67Zm1.17-.23-.9,1.33.18.39L53.27,85Zm10.55,2.07c0-.17-.06-.35-.09-.53l-1.39,2.08L61.71,88l1.42-2.11c0-.19-.05-.37-.07-.56l-1.45,2.17-.13-.67L63,84.62c0-.2,0-.39,0-.59l-1.56,2.33-.13-.66,1.66-2.47a.86.86,0,0,1,0-.16l-.38.08h0l-1.37,2L61,84.53l.84-1.25-.5.1-.44.65-.11-.55-.54.11.44-.65-.1-.5-.84,1.25-.67.13,1.38-2-.1-.5L58.6,83.92l-.66.13,2.31-3.44-.1-.51-2.72,4.05-.66.13L60,79.44l-.1-.5-3.65,5.44-.67.13,4.19-6.24-.1-.5L55.1,84.61l-.33.06.06.33-2.11,3.15.2.36,2-3,.13.66L53.18,89l.21.34,1.77-2.65.13.67-1.62,2.42.21.34,1.51-2.26.13.66-1.34,2,.22.32L55.62,89l.13.66-.84,1.25.51-.1.43-.65.11.55.54-.11-.43.65.1.5L57,90.51l.66-.13L56.3,92.43l.09.5,1.78-2.65.67-.13-2.18,3.24.27.25,2.41-3.59.66-.13-2.71,4,.28.23,2.94-4.37.66-.13L58,94.49l.29.22,3.43-5.12.33-.06-.06-.33Zm-.8-31.58-.47,0-.35.53.1.5ZM49.72,59l3.41-5.08-.22-.1-.12,0L49.62,58.5Zm6.46-10.73c.46-.06.81-.54,1-1.24a2.38,2.38,0,0,1-.76.28,2.11,2.11,0,0,1-1.63-.46C55.08,47.74,55.62,48.33,56.18,48.27ZM62,57.79l1.58-2.36-.47.06-1.21,1.79ZM52.64,53.7c-1.86-.84-3.1-.77-4.18-.07l-.69,1,.51-.1.43-.65.11.54.54-.1-.43.65.1.5.84-1.25.66-.13-1.37,2,.1.51L51,54l.67-.13-2.35,3.5.12.47,2.73-4.07Zm-9.28,4.89-.38.19-1.66,2.48c0,.17,0,.36.07.54l2-3Zm-1.71.67-.45.66c0,.19,0,.39,0,.59l.94-1.4A5.44,5.44,0,0,1,41.65,59.26Zm2.56,11.82c0,.06,0,.11.08.16l.11.21,1.15-1.72h0l-.1-.5Zm.44.85.19.36.94-1.39-.1-.51Zm2.24,1.74-.44.65-.1-.54-.55.1.44-.65-.1-.5h0l-.57.85c.39.67.75,1.23,1.08,1.72l-.1-.48.84-1.25Zm-1-2.11-.81,1.21.2.35L46,72.07l-.1-.51ZM43.3,50.73c.38-.09.62-.64.67-1.37a1.37,1.37,0,0,1-.73.42A1.29,1.29,0,0,1,41.9,49C42.2,50.1,42.79,50.86,43.3,50.73ZM63.69,88.94l-.19.29h0l.25,0Zm-.24-1.14-1.12,1.66.51-.1.71-1.06C63.51,88.14,63.48,88,63.45,87.8Zm.7-17.53-.51.1L59.46,76.6l-.13-.66L63,70.5l-.5.1-3.25,4.84-.13-.66,2.71-4-.5.1L59,74.27l-.13-.66L60.65,71l-.51.1-1.37,2-.13-.67.84-1.25-.5.1-.44.65-.11-.54-.54.1.44-.65-.1-.5-.84,1.25-.67.13,1.38-2-.1-.51-1.78,2.65-.66.13,2.31-3.44-.1-.5-2.72,4-.66.13,3.25-4.84-.1-.5-3.65,5.44-.67.13,4.19-6.23-.1-.51-4.59,6.84-.33.07.06.33-3.71,5.54.2.35,3.61-5.39.13.66L49.19,79.3a1.42,1.42,0,0,0,.08.18l.27-.06,3.24-4.83.13.66-2.71,4,.5-.09L53,75.75l.13.67-1.77,2.64h0l.5-.1,1.37-2,.13.66-.84,1.26.51-.1.43-.65.11.54.54-.11-.43.65.1.51.84-1.26.66-.13-1.37,2,.1.5,1.77-2.65.67-.13-2.31,3.45.1.5L57,78l.66-.13-3.24,4.84.09.51,3.66-5.45.66-.13L54.6,83.84l.1.5,4.59-6.84.33-.06-.06-.33ZM61.77,58.18l-.51.1-4.18,6.24L57,63.85l3.65-5.44-.5.1-3.25,4.84-.13-.66,2.71-4-.5.1-2.31,3.44-.13-.66,1.78-2.65-.51.1L56.39,61l-.13-.66.84-1.26-.5.1-.44.65-.11-.54-.54.1.44-.65-.1-.5L55,59.51l-.67.13,1.38-2-.1-.51-1.78,2.65-.66.13,2.31-3.44-.1-.5-2.72,4L52,60.1l3.25-4.83-.1-.51L51.51,60.2l-.66.13,3.86-5.76-.35-.12-4,6L50,60.5l.07.33-4.59,6.84.5-.1,4.18-6.24.14.67-3.66,5.44.51-.1L50.4,62.5l.13.66-2.71,4,.5-.1,2.31-3.44.13.66L49,67l.5-.1h0l1.37-2,.13.66-.84,1.26.51-.1.43-.65.11.54.54-.11-.43.66.1.5.84-1.25.66-.13-1.37,2,.1.51,1.77-2.65.67-.13-2.31,3.44.1.5,2.71-4,.66-.13L52,70.58l.09.51,3.66-5.44.66-.13-4.18,6.23.09.5,4.59-6.83.33-.07L57.18,65Zm-3.5.69Zm-4.36-4.61-.34-.15-3.72,5.55.1.51Zm8.16,35.6L58.63,95l.3.19,3.24-4.82Zm9.45-33.6Zm1.7.48c0-.19,0-.39,0-.59l-4,6L69,61.47,72.69,56l-.51.1L68.94,61l-.13-.66,2.71-4.05-.5.1L68.71,59.8l-.13-.66,1.78-2.65-.51.1-1.37,2L68.35,58l.84-1.26h0l-.5.1-.44.65-.11-.54L67.6,57l.43-.66-.09-.5-.85,1.25-.66.14,1.38-2.05-.1-.51-1.78,2.65-.66.13,2-2.92-.55.16-1.92,2.86-.66.13L66,55l-.52.12L63.6,57.82l-.67.13,1.83-2.72-.5.09-1.83,2.73-.33.07.06.33-4.58,6.84.5-.1L62.26,59l.13.67-3.65,5.44.51-.1,3.24-4.84.13.66-2.71,4,.5-.1,2.31-3.44.13.66L61.07,64.6l.51-.1,1.37-2,.13.66-.84,1.26.5-.1.44-.65.11.54.54-.11-.44.66.1.5L64.34,64l.66-.13-1.38,2,.1.51,1.78-2.65.66-.13L63.85,67l.1.5,2.72-4,.66-.13L64.08,68.2l.1.51,3.65-5.44.67-.13-4.19,6.23.1.5L69,63l.33-.07-.06-.33ZM86.49,48.3c-.38,0-.88,0-1.44,0-.1.15-.2.31-.32.46a8,8,0,0,1-3.67,2.69,5.89,5.89,0,0,0,2,.09c1.68-1,3.19-2,4.48-2.94l.47-.3C87.53,48.32,87,48.32,86.49,48.3ZM49.68,60.56l-.5.1L45,66.9l-.13-.67,3.65-5.44-.5.1h0l-3.25,4.84-.13-.66,2.72-4-.51.1-2.31,3.44-.13-.66,1.78-2.65-.5.1-1.38,2-.13-.66L45,61.48l-.5.1-.44.65-.1-.54-.55.1.44-.65-.1-.5-.84,1.25-.66.13,1.37-2-.1-.51-1.78,2.65-.3.06a32.13,32.13,0,0,0,1.51,6l.19,0-.13.19c0,.14.1.29.16.43l.48-.72.66-.13-.93,1.38c.06.14.11.27.17.4l1.26-1.88.34-.07-.07-.33Zm32.5-13.9a4.81,4.81,0,0,0,1.15-3.12,15.43,15.43,0,0,1-1.48.8,7.78,7.78,0,0,0-3.52,2.95,4.74,4.74,0,0,1,1.25,1.14A4.37,4.37,0,0,0,82.18,46.66Zm-6.89,3.13a30.7,30.7,0,0,1,1,4.64,2.24,2.24,0,0,0,1-.81,3.05,3.05,0,0,0,0-2.39A1.92,1.92,0,0,0,75.29,49.79Zm-5.12,13,3-4.56c0-.22,0-.44,0-.67l-3.58,5.33Zm-5.36,7.33-.33.07.06.33L60,77.37l.51-.1L64.64,71l.13.66-3.65,5.44.5-.09,3.25-4.84.13.66-2.71,4,.5-.09,2.31-3.45.13.67-1.78,2.65.51-.1.12-.19a31.35,31.35,0,0,1,4-6.37c.72-1,1.43-1.94,2.08-2.94l0-.29-1.78,2.65-.66.13L70,66.14l-.09-.5-2.72,4-.66.13L69.73,65l-.1-.5L66,69.91l-.67.13,4.19-6.23-.1-.51Zm-.57,25.22-.5.1-.44.65-.11-.54-.54.11.44-.65-.1-.51-.84,1.26-.67.13,1.38-2-.1-.5L61,96l-.44.08a14.39,14.39,0,0,0,3,1.09l-.11-.56Zm1.54.08-1.3,1.93.39.07,1.07-1.59Zm-.88-.21-1.32,2,.39.08,1.44-2.15Zm-2.37-3-2.46,3.67.32.16,2.24-3.33ZM62.3,91l-3,4.42.3.19,2.76-4.1Zm3.1,6.49.41,0,.52-.77c0-.12-.11-.27-.17-.4ZM43.79,70.2l.18.39,1.35-2-.1-.51Zm27.54-7.62L73.05,60c0-.27.09-.54.12-.82l-2.34,3.48Zm-5,35,.35,0-.15-.32Zm6.15-35.24h0v0c.12-.36.22-.73.31-1.11L72,62.45Z"/><path class="cls-3" d="M111.93,76.54a10.28,10.28,0,0,1-2.31,1,2.54,2.54,0,0,1-2.79-1C99.35,66.2,93,63.28,92.72,63.16l-1-.43-.8.72c-8.48,7.64-16,9.71-17.3,10a4.45,4.45,0,0,1-1.79-.69,4.77,4.77,0,0,1-1-.94c.82-1.11,1.67-2.26,2.45-3.5A35.9,35.9,0,0,0,76.8,67l.43.93c.45-.57.87-1.16,1.28-1.75,1.24-.63,2.46-1.31,3.64-2l.52.89c.37-.61.7-1.23,1-1.84,1.24-.78,2.41-1.56,3.46-2.29l.58.84c.32-.63.61-1.27.91-1.9l1.81-1.35a3.6,3.6,0,0,1,1.12-.57l.29,1a2.84,2.84,0,0,1,1-1.12,3.43,3.43,0,0,1,1.79.65l.91.67-.61.82L97,60.2c1.08.83,2.11,1.65,3.08,2.46l-.65.79,1.62.29.4.08q1.55,1.35,2.91,2.67l-.71.73c.53.13,1.06.26,1.58.41l.39.12c.95,1,1.82,1.94,2.61,2.89l-.79.66c.51.17,1,.37,1.5.57l.4.18a31.85,31.85,0,0,1,2.09,3.16l-.9.52c.45.25.92.5,1.37.79ZM75.46,63.93c1.13-.51,2.28-1.1,3.45-1.74l.21-.35.82-1.42.52.88c1.12-.67,2.23-1.38,3.33-2.11.06-.12.13-.24.19-.37.24-.49.49-1,.72-1.48l.58.84c1.1-.77,2.18-1.55,3.2-2.32h0c.09-.15.18-.3.28-.45a7.26,7.26,0,0,1,1.56-1.63l.3,1a6.71,6.71,0,0,1,5.2.53c.17,0,.34,0,.51.05l.52.11.42,0,.85.12-.62.82c1.14.85,2.22,1.68,3.25,2.51.7.12,1.4.23,2.1.37l-.66.8c1.09.91,2.11,1.8,3.08,2.69.7.18,1.4.36,2.1.56l-.72.75c1,1,2,2,2.87,3l.43.15,1.62.65-.8.66a37.45,37.45,0,0,1,2.5,3.37l.39.22c.4.24.83.48,1.23.74a5.35,5.35,0,0,0,.19-.79A6.58,6.58,0,0,0,113.8,67a96.33,96.33,0,0,0-14.61-15.4,8,8,0,0,0-9.71-.32,54,54,0,0,1-12.94,7A18.4,18.4,0,0,1,75.46,63.93ZM13,32.45H12a23.18,23.18,0,0,0,.16,2.81l.23.25q.48.48,1,.93l-1,.15c.13.89.31,1.85.52,2.87l1.29,1.11-1,.23c.21.92.45,1.87.72,2.87l1.37,1-1,.28c.27.92.56,1.86.88,2.83.48.33.95.66,1.42,1l-1,.34.08.24c.31.87.62,1.71.95,2.54.48.3,1,.61,1.46.89l-1,.39c.38.93.77,1.84,1.16,2.71.51.28,1,.56,1.52.82l-.93.44c.43.91.87,1.78,1.32,2.62.52.24,1,.49,1.56.71l-.9.5c.5.89,1,1.73,1.51,2.52l.33.12c.42.15.85.28,1.26.41l-.84.59c.57.83,1.15,1.6,1.73,2.31l.33.08c.43.09.87.16,1.29.23l-.76.69a20.27,20.27,0,0,0,1.94,1.9l.06,0a1,1,0,0,0,.26-.05,2.75,2.75,0,0,0,.94-.4l-.4.92a3.45,3.45,0,0,0,1.9.27l.13,0h0l.21-.25c.28-.33.54-.66.8-1l.23,1a24.82,24.82,0,0,0,2.73-.82c.06-.09.13-.18.19-.28.23-.38.46-.75.67-1.14l.38,1c.9-.37,1.79-.77,2.65-1.2.24-.5.47-1,.68-1.51l0,.07c-.16-.77-.3-1.5-.4-2.21a24.62,24.62,0,0,1-8.64,2.66l-.84.1-.58-.62c-.34-.36-8.41-9.24-12.95-33.73a1.21,1.21,0,0,0-1.06-1c-.41,0-.83-.06-1.25-.06s-.68,0-1,0h0C12.57,31.88,12.8,32.17,13,32.45Zm28.3,40.31c-.37-.73-.69-1.47-1-2.21-.67.34-1.35.68-2.06,1-.29.51-.6,1-.93,1.51L37,72.11c-1,.4-2,.76-3,1.06-.08.09-.14.18-.21.27-.31.38-.63.74-1,1.1l-.23-1c-.55.13-1.09.25-1.63.33a6.32,6.32,0,0,1-1.06.09,7.3,7.3,0,0,1-.93-.08,6.87,6.87,0,0,1-2.17.45l.42-1a6.7,6.7,0,0,1-1.68-1c-.41-.35-.82-.74-1.23-1.14l-.36-.07c-.47-.09-1-.19-1.43-.31l.77-.7a30.94,30.94,0,0,1-2-2.48l-.35-.11c-.45-.15-.9-.3-1.34-.48l.85-.58q-.87-1.26-1.71-2.67c-.54-.24-1.07-.46-1.61-.71l.9-.51c-.5-.89-1-1.82-1.47-2.78-.51-.26-1-.53-1.54-.81l.93-.44c-.44-.93-.88-1.88-1.3-2.86-.49-.29-1-.58-1.48-.89l1-.39c-.39-.94-.76-1.92-1.12-2.91l-1.45-1,1-.34c-.35-1-.68-2-1-3-.47-.35-.93-.69-1.39-1l1-.29c-.3-1-.58-2-.82-3-.44-.37-.89-.74-1.32-1.12l1-.23q-.37-1.63-.63-3.09c-.41-.41-.84-.81-1.25-1.24l1-.15c-.16-1.15-.27-2.22-.32-3.16-.08-.11-.17-.2-.25-.31l-.27-.38a8,8,0,0,0-1.33,1.33,7.74,7.74,0,0,0-1.5,6c1.48,8.55,5.87,24.47,18.68,35a8.63,8.63,0,0,0,7.09,1.82,39.16,39.16,0,0,0,10.75-3.54ZM45.16,40c2.19,2.58,3,4.82,3.86,4.14a26.3,26.3,0,0,1,.12,5.72,7.63,7.63,0,0,1,3.61.32,12.76,12.76,0,0,1-1.24-4.28c0-.21,0-.39,0-.58-1.67-.64-2.06-3-2.06-3,1.75.87,3-1.12,3.8-2.42a15.77,15.77,0,0,1,2.73-3.5,36.9,36.9,0,0,1-9.27,3.27C46.27,39.83,45.76,39.93,45.16,40Zm20.19-1.17a15.62,15.62,0,0,0-3.47.26,12.59,12.59,0,0,1,1.9,5.42,13.11,13.11,0,0,1-.22,4.27,13.92,13.92,0,0,1,3.4.42,11.44,11.44,0,0,0-5.34,3.09,17.77,17.77,0,0,0,6.3-1.6c-.89-7.07-1.48-14-1.74-20.59l-2.57,1.69c-1.54,1-3.09,2.06-4.75,3C62.68,34.13,65.35,38.86,65.35,38.86ZM74,83.38c-.57-2.22-1.1-4.48-1.62-6.78a7.73,7.73,0,0,1-3.52-2,17.28,17.28,0,0,0-2,4c0,.08,0,.17-.07.26l.52.48-.7.18q-.09.36-.15.75c.21.86.43,1.73.65,2.59.47.42.94.85,1.42,1.26l-1,.27c.29,1.09.6,2.18.9,3.25.48.42,1,.83,1.43,1.23l-1,.29c.31,1.1.65,2.17,1,3.24l1.44,1.19-1,.31c.35,1.09.71,2.15,1.07,3.22l1.46,1.13-1,.34c.38,1.08.77,2.13,1.16,3.19l1.49,1.08-1,.36a.19.19,0,0,1,0,.07q.61,1.57,1.23,3.06l1.54,1-.94.4c.46,1.06.91,2.09,1.37,3.06.53.32,1.06.64,1.59.94l-.91.45c.51,1,1,2,1.53,3,.54.28,1.09.57,1.64.83l-.88.51c.59,1,1.18,2,1.78,2.82l.3.13c.45.18.91.33,1.36.48l-.82.6a31.15,31.15,0,0,0,2,2.53l.34.08c.46.09.92.16,1.37.23l-.7.72A15.3,15.3,0,0,0,87.7,126a8.29,8.29,0,0,0,1.63-.26l-.43.93a8.66,8.66,0,0,0,1.22.46,19.18,19.18,0,0,0,3.72-4.59C88.26,119.45,80.78,109.91,74,83.38Zm10.29,44.19c-.14,0-.28,0-.41-.06-.51-.09-1.06-.19-1.58-.32l.72-.75a28.54,28.54,0,0,1-2.45-2.7l-.36-.12-.74-.27-.71-.29.83-.61c-.68-.91-1.34-1.89-2-3l-.32-.15c-.46-.23-.92-.45-1.37-.69l.89-.52c-.58-1-1.15-2-1.71-3.11-.54-.31-1.08-.62-1.61-.94l.92-.45c-.5-1-1-2.07-1.49-3.18-.52-.34-1-.67-1.57-1l1-.4c-.45-1-.89-2.11-1.32-3.22l-1.54-1.1,1-.36c-.41-1.06-.8-2.15-1.2-3.27l-.29-.22c-.57.05-1.14.08-1.7.08a19,19,0,0,1-2.73-.21c.18.48.36.94.53,1.41l1.52,1.08-1,.37c.41,1.06.83,2.1,1.25,3.12l1.54,1-.94.39c.44,1.06.89,2.08,1.34,3.09.52.33,1,.66,1.57,1l-.93.43q.72,1.56,1.44,3c.53.31,1.06.62,1.6.91l-.91.47c.52,1,1,2,1.56,3l1.64.83-.89.5c.58,1,1.15,2,1.72,2.87l.33.15,1.34.56-.85.56c.63,1,1.26,1.87,1.89,2.71.57.2,1.15.39,1.72.55l-.8.65c.37.46.73.9,1.1,1.32a13.53,13.53,0,0,0,6.61-1.38A15.39,15.39,0,0,1,84.29,127.57Zm-12.54-3.24L70,123.48,71,123c-.56-1-1.11-2-1.66-3-.55-.31-1.11-.61-1.66-.93l.93-.48c-.51-1-1-2-1.51-3.09l-1.63-1,1-.44c-.47-1-.93-2.06-1.4-3.13l-1.58-1.05,1-.41c-.44-1-.88-2.09-1.31-3.17l-1.54-1.09,1-.37c-.41-1.06-.81-2.13-1.22-3.22l-1.5-1.11,1-.35-.12-.35a17.73,17.73,0,0,1-4.13-2.22,143.49,143.49,0,0,0,12.49,26.38A14.54,14.54,0,0,0,75,129.38C73.93,127.85,72.84,126.16,71.75,124.33Z"/><path class="cls-4" d="M60,49.27a15.64,15.64,0,0,0-3,1.2,4.54,4.54,0,0,1-.55-.59c-.08-.11-.15-.25-.23-.37a1.88,1.88,0,0,0,.34,0c1.13-.13,1.91-1.6,1.9-3.41a.66.66,0,0,1-.2.06c-.54.06-1.07-.62-1.17-1.53A1.83,1.83,0,0,1,57.51,43a3.28,3.28,0,0,0-.64-.69,12.47,12.47,0,0,1,2-1.83l.08.09a8.93,8.93,0,0,1,1.59,4.32h0A9,9,0,0,1,60,49.27ZM42.22,44.43c.82-.17,1.74.67,2.32,2a.66.66,0,0,0-.14,0c-.42.09-.64.72-.49,1.42s.61,1.2,1,1.11a.48.48,0,0,0,.17-.1c.09,1.62-.41,2.92-1.3,3.11a1.21,1.21,0,0,1-.76-.12,8.74,8.74,0,0,0,1,1.62,12.64,12.64,0,0,1,2.07-2.15,12.92,12.92,0,0,0,.49-3.88C45.37,46,44.2,44.06,43,43.06a.92.92,0,0,0-.28-.14,4.21,4.21,0,0,0-.52,1.14c0,.13-.06.28-.09.42Z"/><path class="cls-1" d="M81.67,79h1.62v.45h-.54v1.85H82.2V79.46h-.53Zm3.46,0-.46,1.16L84.17,79h-.56v2.3h.5V79.87l.45,1h.2l.45-1v1.48h.51V79Z"/></g></g></svg>