<svg version="1.2" xmlns="http://www.w3.org/2000/svg" viewBox="0 0 253 302" width="253" height="302"><style>.a{fill:#600}</style><path class="a" d="m128.5 1q-1.2 0-2.3 0c-6 0-12.7 0.4-20.7 1.6-4 0.8-4.1 5.5-3.3 8.8 0.8 2.8 7.6 0.4 7.3 2.6l-93.9 240.4-3.8 3.8c-3 1.4-4.8-2.4-7.3-2.3-2.4 1.4-3.9 4.3-3.2 7.6 4.1 6.7 9.7 11.9 15.1 17.7 5.3 5.2 10.5 10.8 17.7 13.4 10.3-6-4.8-11.6-0.6-19.5l36.9-87.4h111.3l36.9 87.4c4.3 7.9-10.9 13.5-0.6 19.5 7.2-2.6 12.5-8.2 17.7-13.4 5.4-5.8 11-11 15.1-17.7 0.9-3.4-0.5-6.3-3-7.7-2.5-0.1-4.2 3.7-7.3 2.3l-3.8-3.8-93.8-240.3c-0.4-2.2 6.5 0.2 7.3-2.6 0.9-3.3 0.8-7.9-3.3-8.8-7-1-13-1.6-18.4-1.6zm-77 34.6q-0.7 0.1-1.6 0.4c-12.7 5.7-22.2 14.6-33.1 25-3 3.1-5.2 7.4-3.8 12.2 1.8 4.5 9.2-6.3 10.9-4.1v151.8l20.2-51.9v-111.1l2.3-7.9c2.3-3.6 6.7-3.3 7.6-7.6 0.1-2.9 0.8-7.1-2.5-6.8zm149.5 0.1c-3.2-0.3-2.5 3.9-2.5 6.8 0.7 4.2 5.2 3.9 7.5 7.5l2.3 7.9v111.1l20.3 51.9v-151.8c1.6-2.3 9.1 8.6 10.9 4.2 1.4-4.8-0.8-9.1-3.8-12.2-11-10.4-20.4-19.3-33.1-25q-1-0.3-1.6-0.4zm-74.8 6.5l49.6 124.7h-99.3zm-4.3 39c0.1-0.1-3.8 0.1-4.3 2-0.7 3.1 2.5 2.9 2.3 4.4l-27 69.5c-0.9 2.4-3.8 4.9-6.7 4.7-0.9 0-1.2 2.7 0 3.8h22.7c1.5-0.1 1.5-1.7 1.5-3.2 0.4-3-4.5-0.3-3.8-2.3l4.7-11.6h29.8l4.7 11.6c0.7 2-4.2-0.7-3.8 2.3 0 1.5-0.1 3.1 1.5 3.2h22.6c1.2-1 0.9-3.8 0-3.8-2.9 0.2-5.8-2.3-6.7-4.7l-27-69.5c-0.2-1.5 3-1.3 2.3-4.4-0.4-1.9-4.4-2-4.4-2 0 0-8.4 0-8.4 0zm4.3 28.8l10.9 26.9h-21.9zm-44.8 82.1c-2.2 0.5-1.8 3.1-1.2 4.4 0.9 0.5 1.9 0.6 2.9 1.2 1.5 1.8-12.7 34.8-12.7 34.8-1.4 4.7-1.5-0.8-4.1 2.1-1.2 1.2-1.2 2.6-0.3 3.5 4.4 4.7 8.2 11.7 14.8 14.2 4.6-2.3-0.3-5.5 0-8.4l13.7-33.7h0.9l30.8 58.4 30.8-58.4h0.9l13.7 33.7c0.3 2.9-4.6 6.2 0 8.4 6.7-2.6 10.4-9.5 14.8-14.2 0.9-0.9 0.9-2.3-0.3-3.5-2.6-2.9-2.7 2.6-4.2-2.1 0 0-14.2-33-12.7-34.8 1-0.5 2-0.6 2.9-1.2 0.6-1.3 1-3.9-1.2-4.4h-19.2l-25.6 47.1-25.6-47.1c0 0-19.1 0-19.1 0zm-25.4 37.5l-11.6 30.3c0 0 29.5 40 81.8 40 52.3 0 81.8-40 81.8-40l-11.6-30.2c0 0-20.9 43.7-70.2 43.7-49.4 0-70.2-43.8-70.2-43.8z"/></svg>