<svg version="1.2" xmlns="http://www.w3.org/2000/svg" viewBox="0 0 500 500" width="500" height="500"><defs><clipPath clipPathUnits="userSpaceOnUse" id="cp1"><path d="m0 104h500v292.33h-500z"/></clipPath></defs><style>.a{fill:#003058}.b{fill:#0c233f}.c{fill:#ba1c21}.d{fill:#fff}.e{fill:#c2c5c7}</style><g clip-path="url(#cp1)"><path class="a" d="m495.4 222c-3.3-17.7-10.7-34.5-21.6-48.9-3.2-4.5-11.9-14.3-7.7 1.6 9.8 36.3 2.3 47.8 2.3 47.8 0 0 4.7-27.6-13.7-58.7-18.5-31.2-44.2-40.3-44.2-40.3l-1.7 5.1c-15.1-7.5-41.3-22.8-99.8-20.3-68.7 4-121.2 41.9-121.2 41.9 0 0 25.8 3.2 25.6 3.4-89 36.8-181.9 119.7-181.9 119.7 52.7-10.3 113.1-19.3 113.1-19.3-33 15.6-69.7 40.8-83 49.8-13.2 8.9-28.7 21-30.1 22.1-1.4 1.2-19.9 17.4-19.9 17.4 39.2-13.4 47.9-15.9 89.9-25.5 27.5-6 55.3-10.4 83.4-13.1-50.5 25.2-92.4 63.3-92.4 63.3 35.8-9.9 72.2-17.3 109-22.2 47.3-6 75-6.5 75-6.5-0.3 0.4-5 4.2-6.3 5.2-0.6 0.6-1.2 1.1-1.9 1.5-6.4 3.9-13.4 6.6-20.8 7.9q-5.6 1.1-11.4 1.5l-16.4 1.1c22.6 13 37.2 16 37.2 16-1.4 0.9-7.9 3.4-7.9 3.4-2.8 1.1-24.2 8.7-24.2 8.7 44.9 8.7 76.3 3.8 76.3 3.8l-1.3 4.7 6.9-0.4c23.7-1.1 35.6-11.7 35.6-11.7 3.5 3.3 8.3 5 13.1 4.9h34.1c4.6-0.1 8.9-2.1 11.8-5.6 0 0 13.7-16.8 15.9-19.7 2.1-2.9 3.9-6.3 2.8-13.2-1-3.3-0.9-6.9 0.6-10.1 0 0 7.6-21 12.8-35.2 4.5-17.1 1.6-21.6 1.6-21.6 13.5-7.1 19.5-13.9 19.5-13.9 22.5-3.3 46-17 40.9-44.6zm-53.6 46c-6.2 4-13.3 6.3-20.6 6.9h-2.1c-15.1-0.6-30-3.1-44.4-7.4-5.4-26.5-24.9-28.7-24.9-28.7 4.7 3.8 8.4 8.5 10.8 14l-33.9-7.1c0 0 13.9 7.1 24 12.6-10.8 19.7 10.3 27.7 20.4 24.9 0 0.2-0.1 0.3-0.2 0.4-2.4 5-5.9 9.5-10.1 13.2 0 0 15-5.4 24.6-17.2 7.5-0.5 15-0.6 22.5-0.3 2.6 0.2 5.1 0.5 7.2 0.9 3.3 0.7 5.8 1.6 7.6 2.1 0.7 0.1 1.3 0.5 1.8 1.1 2.1 3-0.5 14.8-2.1 18-1.2 2.9-10.1 26.4-12.6 35.4l-7-1.1-31.5-5c-3.9-0.6-7.6 1.5-9 5.2l-5.1 13.7c-1 2.9-0.4 6.1 1.6 8.4l10.7 6.9c1.6 1.1 3.6 1.7 5.6 1.8l15.9 0.3 7.2 0.2c-2.7 3.1-5.4 6.3-7.4 9h-35.4c-13.7 0-22.5-25.4-22.5-25.4-0.3 4.8 0 9.5 0.9 14.2q0.2 0.9 0.3 1.9l0.7 3q0.3 0.8 0.6 1.6c0.2 0.6 0.3 0.9 0.5 1.5-6.7 5.2-14.8 8.5-23.3 9.4l2.1-7.8-8.8 2.6c-0.2 0-13.2 3.8-40.1 2.1q4.5-2.3 8.6-5.2l14-9.9c0 0-19.5 0.2-32.3-2.9 6.7-2.1 25.2-13 33.6-22.2 6.9-7.1 14.6-13.5 22.9-18.9-3.7 0.4-7.5 1.1-11.2 2.1q-2.9 0.9-5.7 2.1l-1.3 0.6q-3.5 1.6-6.7 4c-51.3 1.4-102.4 7.4-152.6 18 2.1-1.4 4.2-2.9 6.5-4.5 22.6-15.7 46.9-29 72.3-39.7l27.5-11.2-10.3 0.5-19.3 0.9c-60.9 2.8-118.6 15.8-151.6 24.6l10.3-7.2c28.1-19.3 70-45.5 111.1-60.9l40.5-15.2-42.8 5.3c-40.1 4.8-85.9 12.5-111.3 17.1l10.8-8.4c35.2-26.9 99.6-72.2 157-91.5l21.3-7.2-38.4-4.9c64.2-33 144.2-34.3 191.6-1.8l3.6 3.1 1.7-5.4 0.5-2c19.3 10.5 41.5 39.2 41.3 78 0.1 24.7-4.7 43.5-15.6 51.4zm-39.4 79.2l-8.8 4.2-21.8-13.9 22.9 8.4 14.4-1.9zm-29.7-71.4c-9.2 4.7-22.7-4-11.5-17.8l1.6 0.3c1.6 4.9 2.6 9.9 2.9 15q3.4 1.2 7 2.1zm115.1-47.1c-0.3 17.3-13.7 24.2-26.7 27.4 1.6-3.6 2.8-7.4 3.6-11.4q1.4-6 2-12.2c18.2-1.8 8.4-41.4 8.4-41.4l2.9 5.3c0.4 0.5 0.5 1.3 0.9 1.8l1.3 2.5c5.2 11 7.4 20 7.6 27.3z"/><path class="b" d="m219.2 292.2l12.1-0.5 10-0.4z"/><path class="c" d="m363 258.5l-1.6-0.4c-11.2 13.9 2.3 22.4 11.5 17.9v-0.4c-2.1-0.5-4.5-1.3-7-2-0.4-5.1-1.4-10.2-2.9-15.1z"/><path class="d" d="m294.6 204.9c1.1-20.6 18.9-33.1 30.8-39.2 2.6-0.9 5.1-1.6 7.5-2.3-21.7 6.5-47.3 18.4-50 37.3v0.4c-1.7 8.1 0.5 16.5 5.9 22.7 5.6 6.9 14.1 11.4 21 11.4 4.3 0 9.6-3.6 13.7-8.1-22.6-0.6-29.5-13.8-28.9-22.2z"/><path class="d" d="m475.4 191.3c0.6 0.9 0.9 1.7 1.3 2.4q-0.7-1.2-1.3-2.4c-0.2-0.1 9.8 39.6-8.4 41.4-0.5 4.5-1.2 8.4-2 12.2 10.2-3.2 27-14.4 10.4-53.6z"/><path class="d" d="m443.6 210.1c-4.1-35-31-45.5-31-45.5 0 0 15.2 3.8 21.7 6.3-16.8-15.7-34.1-27.3-68.3-33.2l20.3-0.7c-59.1-26.9-132.5 1.4-132.5 1.4l32.9 6.5c-39.2 13.8-77.4 30.1-114.5 48.9l31.5-3.2c0 0-50.5 14.7-124.9 57-2.3 1.8-4.5 3.4-6.4 5.1v0.1c29.2-10.7 84.9-26.2 149.7-19.3l-30.1 3.8 30.3-3.8-40.3 15.2c-41 15.5-83 41.7-111.2 61 35-14.5 71.1-25.8 108.1-33.8l-23.6 14.2c0 0 33.4-4.2 86.4 0.8h-0.2l-22.2 0.9 22.4-0.9-27.4 11.2c-25.4 10.6-49.7 23.9-72.4 39.7 27.8-11.6 67.9-26.4 104.3-33.3 0 0-13 10.9-19.3 16.3 26.9-4.7 65.3-3.4 74.9-3.1q5.5-1.6 11.2-2.1c-8.3 5.5-16 11.8-22.9 18.9-8.4 9.4-26.9 20.2-33.6 22.2 29.2-0.5 40.8-5.4 40.8-5.4-1.3 7.6-8.1 14.7-8.1 14.7 13.1-1.3 25.7-5.7 36.8-12.8l-1.7 12.1c3.5-1.1 6.7-2.9 9.4-5.3v0.4c-0.8-4.7-1.1-9.5-0.9-14.2 0 0 11.2 18.2 19.2 19.4 5.7 0.9 25.6 1.1 36.1 1.1 1.3-1.2 2.3-2.6 3.2-4.2l-15.9-0.4c-2 0.1-4-0.6-5.6-1.8l-10.6-6.5c-2.1-2.3-2.7-5.6-1.6-8.4l5-13.8c1.4-3.6 5.2-5.8 9.1-5.2l31.3 5.1c1.5-5.3 6.5-25.2 11.4-35.2 4.9-10 0.9-20.6 0.9-20.6q-3.5-0.9-7.2-0.9c-8.8-0.4-22.5 0.3-22.5 0.3-6.7 7.7-15.1 13.5-24.6 17.2 4.2-3.7 7.6-8.2 10.1-13.2-25.4 5.8-33-9.7-33-9.7 3.4 0.5 6.9 0.5 10.3 0-11.6-2.5-18.4-13.4-18.4-13.4l17.7 1.3c-11.1-2.7-20.8-16.1-20.8-16.1l33.9 7.1c-2.5-5.4-6.2-10.1-10.9-13.9 0 0 19.5 2.1 24.9 28.7 15.2 4.6 30.8 7.1 46.6 7.4h-2.1q4.9-3.4 8.9-7.7h-13c0 0 11.1-3.3 17.3-5.3 7.4-10.1 14-26.7 11.1-51.4zm-85.8-53.2c-7.4 6.1-33.4 21.3-40.3 35.5 8.7-3.2 18.4-2.5 26.5 2.1-7.9-0.1-15.7 1.9-22.7 5.8q2.2 0.7 4.5 0.7c7.2 0.4 14.7 4.3 14.4 13.9-0.3 12.5-16.2 30.3-30.4 30.3-7.3-0.2-14.3-2.6-20.3-6.8-5 9-8.5 18.9-10.1 29.2l14.5-11.7c-2.1 11.1-2.1 22.5 0.1 33.6 0 0 9.6-10 12.5-13.4-6.5 20-6.7 25.6-8.4 39.5-15.9-23.6-14.3-40-14.3-40l-12.4 9.5c-1.6-15.5 1.1-31.3 7.8-45.4l-11.8 1.2c1.1-3.5 2.7-6.9 4.9-9.9q2.1-3.1 4.6-5.9c-5-7.8-6.6-17.3-4.5-26.4 2.6-16.4 16.1-30.5 41.9-39.3 14.7-5.1 34.1-7.2 41.3-6.7 2.7 0.4 3.8 2.9 2.2 4.2zm29.6 106.4c0 0-4.2-12.8-16.8-30.3 16.9 13.1 21.1 24.1 21.1 24.1q8.9 5.3 18.6 9.1c-7.9 2.4-22.9-2.9-22.9-2.9z"/><path class="e" d="m416.2 138.1l-0.5 2-1.6 5.4-3.6-3.1c-47.5-32.6-127.6-31.2-191.7 1.8l38.4 4.9-21.3 7.2c-57.3 19.3-122 64.6-157 91.5 74.4-42.4 124.9-57 124.9-57l-31.5 3.2c37.1-18.7 75.3-35.1 114.5-48.9l-32.9-6.5c0 0 73.5-28.3 132.4-1.3l-20.3 0.7c34.2 6 51.5 17.5 68.3 33.2-6.5-2.5-21.7-6.3-21.7-6.3 0 0 26.9 10.5 31 45.5 2.9 24.7-3.7 41.3-11.3 51.8-6 2-17.3 5.2-17.3 5.2h12.9c-2.6 3-5.6 5.6-8.8 7.8h2.1c7.1-0.9 15.2-2.9 20.6-6.9 10.8-7.9 15.7-26.7 15.7-51.9 0.2-39-22-67.7-41.3-78.3zm-5.9 128.1c-6.5-2.5-12.7-5.5-18.6-9 0 0-4-11-21.1-24.2 12.8 17.3 16.8 30.3 16.8 30.3 0 0 15 5.3 22.9 2.9zm-83.6-20.5c0 0 9.6 13.3 20.8 16l-17.7-1.3c0 0 6.8 11.1 18.4 13.4-3.4 0.6-6.9 0.6-10.3 0 0 0 7.6 15.3 33 9.7q0-0.2 0.2-0.3c-10.1 2.7-31-5.1-20.4-24.9-10.1-5.5-24-12.6-24-12.6zm-104.6-12c-65.1-6.8-121 8.9-150.2 19.5-0.5 0.6-1.2 0.9-1.8 1.5h-0.2c-0.5 0.5-1.2 0.9-1.8 1.4 25.5-4.5 71.1-12.2 111.3-17.1zm72.3 91.1c0.4-0.2 1.3-0.5 1.3-0.5q0.6-0.4 1.3-0.6c0 0 4.2-1.4 4.5-1.6 0 0-44.1-2.1-74.9 3.1 6.3-5.2 19.3-16.3 19.3-16.3-36.4 6.9-76.3 21.7-104.3 33.2-2.3 1.7-4.5 3.1-6.5 4.6 50.2-10.7 101.3-16.7 152.7-18.1 2.1-1.5 4.3-2.7 6.6-3.8zm-53-33.6c-52.9-4.9-86.3-0.7-86.3-0.7l23.7-14.4c-37 7.9-73.2 19.2-108.1 33.7-1.3 0.9-2.3 1.7-3.4 2.4-0.1 0-0.2 0.1-0.2 0.2 0 0-0.2 0-0.2 0.1 0 0.2-0.1 0.2-0.3 0.2q-0.7 0.6-1.5 0.9-0.5 0.3-0.9 0.8c-0.1 0.1-0.3 0.1-0.3 0.3q-0.4 0.2-0.7 0.6c-1 0.5-1.7 1.2-2.6 1.8 33-8.9 90.6-21.9 151.6-24.6zm94 80.1q-0.2-0.8-0.5-1.6c0-0.2-0.2-0.3-0.2-0.5-0.2-0.6-0.3-1.3-0.5-1.8 0-0.2-0.2-0.6-0.2-0.7-0.2-0.6-0.2-1.1-0.4-1.9v-0.3c-2.7 2.4-5.9 4.1-9.4 5.2l1.7-12.1c-11.1 7.2-23.7 11.6-36.9 12.8 0 0 6.7-7.2 8.2-14.8 0 0-11.6 4.9-40.8 5.4 12.8 3.3 32.3 2.9 32.3 2.9l-14.1 10q-4.1 2.9-8.7 5.2c26.9 1.6 39.9-2.1 40.1-2.1l8.8-2.7-1.9 7.7c8.5-0.8 16.5-4.1 23.3-9.3q-0.6-0.6-0.8-1.3zm-26.9-184.2c4.2-7.1 13-15.4 26.8-24.8-3.3 0.9-6.6 2-10 3.1-11.9 6.2-29.6 18.6-30.8 39.2-0.6 8.6 6.3 21.6 28.8 22.2 3.6-4 6.3-8.7 6.3-12.3 0-1.3 0.2-3.1-4.7-3.2-5.4-0.1-10.6-2-14.8-5.5-0.6 3.1-0.9 6.2-0.9 9.2-10.5-12.2-0.7-27.9-0.7-27.9zm179.4 40.9c0-7.2-2.1-16.2-7.6-27.3q-0.5-1-1.1-1.9c0-0.2-0.2-0.2-0.2-0.4-0.4-0.6-0.5-1.3-0.9-1.8-0.2-0.2-0.2-0.4-0.3-0.5q-0.6-0.9-0.9-1.8c-0.2-0.2-0.2-0.4-0.4-0.6-0.4-0.7-0.9-1.4-1.3-2.3 16.6 39.1-0.2 50.4-10.5 53.6-0.8 3.8-2 7.7-3.5 11.4 13-3.3 26.4-10.1 26.7-27.5v-0.9zm-64 54.6c-0.2 0-0.4-0.2-0.6-0.2h-0.2c-0.1 0-0.3-0.1-0.5-0.1h-0.2q-3.7-1.5-7.6-2.1c0 0 4 10.8-0.9 20.6-4.8 9.7-9.9 29.7-11.4 35.1l7.1 1.1c2.7-9 11.4-32.5 12.6-35.3 1.4-3.3 4.2-15 2-18.1 0-0.3-0.1-0.7-0.3-0.9zm-52.2 54.6l21.8 13.9 8.9-4.2 6.5-3.1-14.5 2.1zm16.3 33.8c-10.5 0-30.3-0.2-36.1-1.1-8-1.2-19.1-19.5-19.1-19.5 0 0 8.6 25.5 22.5 25.5h35.6c1.9-2.7 4.7-6 7.4-9.1l-7.3-0.1c-0.7 1.7-1.7 3.2-3 4.5z"/><path class="a" d="m355.6 152.9c-7.2-0.5-26.5 1.6-41.3 6.7-25.8 8.8-39.4 22.9-41.9 39.3-1.9 9-0.4 18.5 4.5 26.4q-2.5 2.8-4.6 5.9c-2.2 3-3.8 6.4-4.9 9.9l11.7-1.2c-6.7 14.1-9.4 29.9-7.7 45.4l12.4-9.4c0 0-1.7 16.4 14.2 40 1.1-13.4 3.9-26.7 8.4-39.5-3 3.3-12.4 13.4-12.4 13.4-2.2-11.1-2.3-22.4-0.2-33.4l-14.4 11.7c1.6-10.2 5-20.1 10.1-29.2 5.9 4.2 12.9 6.6 20.2 6.8 14.2 0 30.1-17.8 30.5-30.3 0.3-9.5-7.3-13.3-14.5-13.9q-2.2-0.2-4.5-0.7c7-3.9 14.8-5.9 22.8-5.8-8.1-4.6-17.9-5.3-26.6-2.1 6.9-14.2 32.9-29.4 40.3-35.5 1.7-1.8 0.6-4.3-2.1-4.5zm-47.1 34.3c0 0-9.8 15.5 1.1 28-0.1-3.1 0.2-6.2 0.9-9.2 4.1 3.4 9.4 5.3 14.8 5.4 4.7 0.3 4.7 1.9 4.7 3.2-0.2 7.4-12 20.4-20.1 20.4-6.8 0-15.3-4.5-21-11.4-3.2-3.9-8.4-12.2-5.9-22.7v-0.4c2.9-19.6 30.4-31.7 52.4-38-14.1 9.5-22.8 17.7-26.9 24.7z"/><path class="c" d="m493.3 200.3c-4.6-11.3-10.8-21.9-18.2-31.5-5.1-6.2-8-7.6-11.1-6-1.8 1.1-2.8 3.1-2.7 5.3-5.9-12-13.9-22.8-23.8-31.8-8.6-7.8-18.4-13.9-29.2-18l-1.5 4.6c-12.1-6.1-41.3-20.7-91.8-18.7-33.9 1.4-67.1 9.8-97.7 24.7-12.4 5.6-40.6 23.5-40.6 23.5l23 2.9c-23.1 10.8-45.4 23.1-66.8 36.9-16.6 10.2-41.2 27.6-51.1 35.2-15 10.8-34.8 27.3-34.8 27.3l-29.1 24.5 14.3-2.9c0 0 23.3-4.3 33.2-6.1 9.9-1.8 57.4-9.8 57.4-9.8-12.2 6.2-36.3 21.5-46.2 28.1-9.9 6.5-33 22.4-49.1 35.5-9.8 7.8-19 16.4-27.4 25.7 9.9-2.8 26.7-8.4 37.5-12 10.9-3.5 23.5-7.4 55.6-14.9 32.1-7.6 72.9-13 72.9-13-14.7 8.3-28.9 17.8-34.5 21.6-11.9 8.2-24.1 18.3-24.1 18.3l-30 25.1c0 0 34.6-8.8 50-12.5 15.3-3.8 36.6-7.6 49.2-9.8 12.7-2.2 26.6-3.8 44.6-6 18.1-2.1 43.7-3.5 43.7-3.5-11.2 6.8-26 7.7-26 7.7l-31.2 2c0 0 12.3 7.7 16.4 9.7q10.6 5.8 22 10l-34.6 12.4 10.1 2.1q17.3 3.7 35 5.1c13.2 1.2 26.5 1.2 39.7 0l-1.1 4.3c0 0 5.6-0.2 14.3-0.5 11.8-0.5 23.2-4.2 33-10.7 4 2.6 8.6 3.9 13.3 3.9h32.2c5.6 0.6 11.1-1.4 15.1-5.4q1.7-1.6 3.1-3.6l11-13.4c2.1-2.5 4.1-5.2 5.8-8.1 3-5.8 1.4-11.9 0.9-14.7-0.4-1.6-0.3-3.2 0.3-4.7 0 0 6.5-18 11.8-32.5 3.1-7.9 4.4-16.4 3.9-24.9 6.1-3.3 11.8-7.4 16.8-12.3 25.4-3.5 40.1-19.2 42.6-32.2 2.2-11.9-2.2-26.7-6.1-36.9zm-38.7 66.4c0 0-5.9 6.7-19.4 13.9 0 0 2.7 4.5-1.7 21.6-5.2 14.3-12.8 35.2-12.8 35.2-1.4 3.2-1.6 6.8-0.5 10.1 1.1 4.6 0 9.5-2.9 13.2-2.1 3.1-15.9 19.7-15.9 19.7-2.8 3.5-7.2 5.6-11.7 5.6h-34.1c-4.9 0.1-9.6-1.6-13.2-4.9 0 0-11.9 10.7-35.5 11.7l-6.9 0.4 1.3-4.7c0 0-31.5 4.9-76.4-3.8 0 0 21.3-7.6 24.2-8.7 0 0 6.3-2.5 8-3.4 0 0-14.7-3-37.2-16l16.4-1.1q5.8-0.2 11.4-1.5c7.3-1.3 14.4-4 20.7-7.9 0 0 0.7-0.6 2-1.5 1.3-0.9 6-4.8 6.3-5.2 0 0-27.6 0.6-75.1 6.5-36.8 4.8-73.2 12.2-109 22.2 0 0 41.9-38.1 92.4-63.3-28 2.7-55.8 7-83.3 13.1-41.9 9.5-50.7 12.1-89.9 25.4 0 0 18.4-16.2 19.9-17.3 1.4-1.1 16.9-13.2 30.1-22.2 13.2-9 50-34.2 83-49.8 0 0-60.3 9-113.1 19.3 0 0 92.9-82.7 181.9-119.7 0.1 0-25.7-3.4-25.7-3.4 0 0 52.7-37.8 121.3-41.9 58.3-2.7 84.6 12.8 99.8 20.2l1.6-5c0 0 25.8 9 44.2 40.2 18.4 31.2 13.7 58.8 13.7 58.8 0 0 7.6-11.6-2.3-47.8-4.2-15.9 4.5-6.2 7.8-1.7 11 14.4 18.4 31.2 21.6 49 4.9 27.6-18.4 41.3-41 44.6z"/></g></svg>