<svg version="1.2" xmlns="http://www.w3.org/2000/svg" viewBox="0 0 200 200" width="200" height="200"><defs><clipPath clipPathUnits="userSpaceOnUse" id="cp1"><path d="m0 36.5h199.74v128.87h-199.74z"/></clipPath></defs><style>.a{fill:#fff}.b{fill:#522e91}.c{fill:#ffcc41}</style><path fill-rule="evenodd" d="m101.2 51.4c0 0 0.2 0 0.7 0.2 0.5 0.1 0.6 0.1 0.6 0.1 0 0-1.1 0.2-1.4 0.3"/><g clip-path="url(#cp1)"><path fill-rule="evenodd" class="a" d="m197.8 76.5c-3.5-7.5-11.6-12.5-24.2-14.8q-0.3-0.1-0.7-0.1 0.5-1.1 0.7-2.3c0 0 0.1-2 0.1-2-0.2-7.7-8.1-12.2-9.4-12.9-3.3-2.1-30.1-17.8-74.5 2-0.8 0.4-1.4 0.7-1.9 1 0 0 0.1-0.1 0.1-0.1-8.5 4.6-13.5 7.2-20.2 14.1l-7.6 9.2 9.3-4.3q0.2-0.1 0.4-0.2-10.4 9.2-21.3 21.5l-10.1 11.5-6.5 7.2 9.1-3.5c0.1 0 10.2-4.4 13.4-5.5-3.5 5.5-9.8 14.2-18.4 22.1-10 9-14.2 11.9-26.9 20.3l-9.2 6.2 2.9 1.9c0.5 0.4 14.2 9.8 35.3 5.3 5.7-1.2 10-2.7 13.1-3.9-0.5 0.8-1.1 1.7-1.8 2.7-3.8 5.5-7.9 9.3-7.9 9.4l-4.2 3.9 5.6 0.2c0.7 0 15.9 0.4 29.9-7.2 5.5-3.1 9.3-5.6 11.3-7.1 0.3 0.5 0.7 1 1.1 1.7 0 0 4.2 6.6 4.2 6.6l1.9-1.2c0.2-0.2 4.5-2.9 7.1-5.3 1.1-1 2.1-2 2.8-2.8 1.5 2.1 3.7 4.9 6.5 6.9 8.4 6.1 18.7 4.7 19.2 4.6l3.7-0.5-2.2-3.2c0 0-1.8-2.7-3-6.6q-0.3-1.2-0.5-2.3c3.9 2 10.3 4.6 17.3 4.8 9.4 0.2 21.2-2.8 21.7-2.9l7.2-2.1-7.3-2.5c-0.1 0-17.2-4.1-18.8-18.1q-0.3-2.6-0.3-5c0-8.8 2.7-15.4 4.1-18.3 11.8-3.4 27.8-2.9 30.2-1.8 0.9 0.8 1.6 5.6 1.6 10.6q0 0.9 0 1.9l-0.3 8.3 15.3-23.6 0.1-0.1c1.4-2.7 3.9-8.4 3.9-14.7 0-2.9-0.5-6-1.9-9z"/></g><path fill-rule="evenodd" class="b" d="m173.2 64q-2-0.4-4-0.5c1.1-1.4 1.9-3 2.1-4.6q0.2-0.7 0.1-1.5c-0.1-5.3-5.3-9.4-8.2-10.9-1.7-1.1-28.3-17.7-72.4 2 0 0-1.7 0.8-1.7 0.9-4.8 2.6-18.2 10.2-20.6 14.8 7.8-3.7 12.8-5.8 16.3-7-8.6 6.1-20.3 16-34.5 32l-10.1 11.5c0 0 10.8-4.7 13.8-5.7 2.8-0.9 5.4-1.6 5.4-1.6-1.1 2.2-8.8 15.8-21.8 27.7-11.6 10.6-15.8 13-33.4 24.8 0 0 13.2 9.2 33.5 4.9 12.6-2.7 18.4-6.5 18.4-6.5 0 0-0.8 3.4-4.7 9-4.1 5.8-8.3 9.7-8.3 9.7 0 0 15.1 0.5 28.7-6.9 8.3-4.6 12.7-8.1 12.7-8.1 0 0 1.2 1.1 2.8 3.5 1.2 2.1 2.9 4.6 2.9 4.6 0 0 4.3-2.6 6.8-5 2.8-2.6 4.6-4.9 4.6-4.9 0 0 3.2 5.8 7.5 8.9 7.8 5.6 17.5 4.2 17.5 4.2 0 0-2-2.9-3.3-7.4-1.1-3.9-1.3-7.3-1.3-7.3 0 0 9.5 6.5 20.4 6.8 9.1 0.2 21-2.8 21-2.8 0 0-18.8-4.3-20.6-20.1-1.5-13.1 3-22.7 4.5-25.6 12.4-3.8 30.4-3.4 33-1.8 3.2 1.9 2.7 14.5 2.7 14.5l10.8-16.5c3.4-6.5 12.1-29-20.6-35.1z"/><path fill-rule="evenodd" class="c" d="m118.5 84.2c0 0 22.1-18.3 45.1-17.3 24.7 1.1 34.7 17.6 24.1 33.5-1.8-6.5-1.6-28.2-69.2-16.2z"/><path fill-rule="evenodd" class="c" d="m115.7 87.3c0 0 29.4-7.6 48.6-3.6 20.5 4.3 19.2 11.7 19.2 11.7 0 0-30.1-2.1-37.9 2.7-10.4-9.2-28.9-10.9-29.9-10.8z"/><path fill-rule="evenodd" class="b" d="m163 71.4c-0.5 0.8-1.4 1-2.3 0.8-1.2-0.3-1-1.2-1-1.4 0-0.2-0.2-0.5-0.6-0.6-1.3-0.3-3 0.3-3.8 0.6-0.2 0.1-0.3 0.1-0.4 0.1q-0.2-0.1-0.1-0.3c0.1-0.1 0.2-0.2 0.3-0.3 0.6-0.4 3.5-2 6.1-1.3 1.7 0.4 2.2 1.5 1.8 2.4z"/><path fill-rule="evenodd" class="a" d="m137.9 60.9c-0.1 0.4-0.5 0.8-1 0.8-0.5 0.1-0.8-0.3-0.7-0.7 0.1-0.4 0.5-0.8 1-0.9 0.4 0 0.7 0.3 0.7 0.8z"/><path fill-rule="evenodd" class="a" d="m144.2 62.1c-1.4 2.1-5.6 2.9-9.6 1.8-3.3-0.9-5.4-2.8-5.6-4.7q-1.1 0-2.1 0.1c-0.2 2.6 2.7 5.3 7.3 6.6 5.3 1.5 10.9 0.3 12.5-2.6q0.1-0.1 0.1-0.2-1.2-0.4-2.6-1z"/><path fill-rule="evenodd" class="a" d="m160.3 49.9c0 0-26.3-17.4-70.2 2.9 6.2-0.8 8.7-1.5 11.2-1.1 0 0-18.1 5.7-48 39.5 4-1.6 11.8-4 15.1-4.4-0.4 0.6-0.6 1.2-0.6 1.2 0 0-10.9 21.3-24.5 34.8-11 11-29.2 22.3-29.2 22.3 0 0 9 4.1 26.2 0.4 10.6-2.3 23.2-10.2 23.2-10.2 0 0-0.1 5-3.4 13-2.1 5.2-6 9.4-6 9.4 0 0 10.9-2.5 19.7-8.3 6.7-4.4 11.4-9.8 11.4-9.8 0 0 2.2 2.2 3.7 4.2 1.6 2 3.1 4.5 3.1 4.5 0 0 3.1-2.6 5.4-5.4 2.3-2.8 4.4-7.2 4.4-7.2 0 0 4.9 9.5 7.8 12.9 4.1 4.9 8.8 4.9 8.8 4.9 0 0-1.2-4.2-1.6-8-0.5-4.8 0.6-9.8 0.6-9.8 0 0 10.1 8.3 17.9 10.5 9.3 2.5 16.4 0.8 16.4 0.8 0 0-11.6-5.1-13.2-18.4-1.5-12.9 5.2-26.7 5.2-26.7 0 0-15.3-12.4-37.8-11 1.1-1.1 15.9-15.8 35.8-23.3-5.8 0.7-13.9 0.2-16.8-7.9-5 0.2-18 2.1-29.7 10.3 5.5-7.1 19.8-18.2 40.8-15.8 12.7 1.5 14.1 5.8 15.8 6.7 0 0 2.1 1.8 4.9 2.8 2.3 0.8 5 1 7.5-0.5q0.8-0.5 1.6-1.4c4-4.1-1.4-9.8-5.5-11.9z"/></svg>