<svg viewBox="0 0 154.34 98.06" xmlns="http://www.w3.org/2000/svg"><path d="m149 22.68c-3.78-3.79-6.08-1.19-6.08-1.19a18.83 18.83 0 0 0 -8.57-.15 35.85 35.85 0 0 1 -15.46-4.69c-13.23-7.58-30.27-19.18-62.01-15.77a70 70 0 0 0 -9.98-.88 21.29 21.29 0 0 0 1.1 5.62c-23.69 4.89-35.2 15.56-35.2 15.56a46.75 46.75 0 0 1 7.7.87 37.64 37.64 0 0 0 -16.5 14.24 22.57 22.57 0 0 1 4.4-.4c-14.2 19.37-6 41.68-6 41.68s5.51-16.5 21.18-20.95c18.13-5.15 30.78.38 41.68 20.86 11.24 21.22 27.57 20.58 27.57 20.58-3.93-21 10.41-26.18 10.41-26.18s4.45 2.58 8.27 4.61 10 4 15.35-.22a34.9 34.9 0 0 0 8.93-11.43s-3-3-2.77-6.49 3.86-5 3.86-5c5.43-.15 7.31-4 7.31-4s7.31 0 9.26-7.13c2.55-9.22-.71-15.76-4.45-19.54z" fill="#807f83"/><path d="m138.3 27.21a13.92 13.92 0 0 1 2.86.42c-.55.52-1 1-1.47 1.44a17.38 17.38 0 0 0 -5.16-.37 5 5 0 0 1 3.77-1.49zm-85.24-12.6a64.34 64.34 0 0 0 -11 3.4c1.39.52 2.63 1 3.75 1.55a63.65 63.65 0 0 1 8-2.74c-.25-.7-.51-1.43-.75-2.21zm8.5 37.13a17.19 17.19 0 0 0 -5.41-7.19 14.67 14.67 0 0 1 10.85 6.18c5.9 8.36 6.08 19.07 15.93 27.65l.08-.33s3.37-10.47 12-13.94-7.74-1.33-13 6.69c-3-4.13-5.73-11.73-9.5-19.08-6.63-13-24-11.13-24-11.13a26.23 26.23 0 0 1 4 3.26c-15.38-2.4-19.72 5.71-19.72 5.71s11.97-9.51 28.77 2.18zm28.44-37.84a49.63 49.63 0 0 1 5.27 1.43c9.5 3.17 22 13.69 34.65 14.56a6.46 6.46 0 0 1 .9-2.11c-11.17-.59-25.43-10.58-33-14.29-5.71-2.74-12.82-4.42-17.16-4.42a23.29 23.29 0 0 1 5.92 5.28c-3.72-.66-7.57-1.16-11.19-1.43 1 .63 1.93 1.3 2.9 2a7.39 7.39 0 0 1 1.33 1.29c2.72.23 7 .72 13 1.81a24.29 24.29 0 0 0 -2.62-4.12z" fill="#c1d82f"/><path d="m151.05 35.83a16.25 16.25 0 0 1 -1.23 6.54 5.81 5.81 0 0 1 -4.6 3.46l-3.24.44c-1.65 4.31-5.18 3.73-5.18 3.73a8.13 8.13 0 0 0 .61-3 42.9 42.9 0 0 0 -4.67 1 9.8 9.8 0 0 1 -7.09 4 23.8 23.8 0 0 0 .7-3.21 8.91 8.91 0 0 0 -3.35 5.31 6.21 6.21 0 0 0 2.76 6.72 7.88 7.88 0 0 1 -.57-4.18s3.51-4.08 7.19-4.08c0 0-5.7 4.59-.54 12.37-9.26 15.32-14 11.58-28.24 3.27-4 1.24-14.55 6.15-15.24 23.72-17.09-4.92-19.52-22.26-29.56-32.92-11.8-12.52-25.94-9.44-25.94-9.44s11.9-9.51 28.7 2.18a17.19 17.19 0 0 0 -5.41-7.19 14.67 14.67 0 0 1 10.85 6.18c5.9 8.36 6.08 19.07 15.93 27.65l.08-.33s3.37-10.47 12-13.94c-7.01-2.63-11.36-2.32-11.36-2.32s5.2-4.58 16.33 0c9.14 3.73 17.06 9.64 20.64 8.34a11.88 11.88 0 0 0 5.65-4.83c-10.92-1.36-20.8-9.3-20.8-9.3a33.27 33.27 0 0 1 5.29-7.47 12.79 12.79 0 0 0 -3.52-4.71 19.42 19.42 0 0 1 6.81 1.56 32.63 32.63 0 0 1 5.27-3.74s2.31 2.63 7.83 2.63c4.77 0 10-1.63 16.66-2.22a4.54 4.54 0 0 0 3.95-3.27 16.87 16.87 0 0 0 .58-3.13 9.24 9.24 0 0 0 -2.34-6.98.84.84 0 0 0 -1.25 0c-2 2.25-5.63 5.16-4.79 9.54h-.1a4.35 4.35 0 0 1 -2.47-5c.66-2.7 1.9-3.77 3.75-5.55a13.92 13.92 0 0 0 -2.86-.42c-7 0-6.09 10.26-6.09 10.26a4.83 4.83 0 0 1 -2.69-4.41 9.33 9.33 0 0 1 1.27-5.28c-11.17-.59-25.43-10.58-33-14.29-5.66-2.77-12.77-4.45-17.11-4.45a23.29 23.29 0 0 1 5.92 5.28c-3.72-.66-7.57-1.16-11.19-1.43 1 .63 1.93 1.3 2.9 2a7.56 7.56 0 0 1 3 6.11 18.54 18.54 0 0 1 -.37 3.5s-6.25-9.16-22.6-13.53c0 0 .67 12.88 12.49 18.61 0 0-12.75 1.46-17.75-15a64.34 64.34 0 0 0 -11 3.4c7.79 2.9 11.32 6 11.32 6s-13.19 0-20 3.68c0 0 5.06 1 8.19 3.34 0 0-27.77-.15-37.91 31.23a38.06 38.06 0 0 1 14.19-29.8 30.31 30.31 0 0 0 -5.61-.1 46.66 46.66 0 0 1 20-11.53 76.3 76.3 0 0 0 -9.24-1.83 88.09 88.09 0 0 1 28.69-10.73c-.2-1.4-.36-2.88-.46-4.46a52.21 52.21 0 0 1 11.77 2.93c2-.16 3.83-.25 5.43-.29a34.46 34.46 0 0 0 -6-3.21c8.36-1.05 28.85 1 43.94 9.94 13.87 8.2 17.25 10.85 28.38 11.54a8.72 8.72 0 0 1 3.23-.45 22.36 22.36 0 0 1 5.62.84l.07-.09a1.9 1.9 0 0 1 2.86-.07 16.34 16.34 0 0 1 4.52 10.88zm-78.78-11.1a4.24 4.24 0 0 0 3.4 1.59 16.1 16.1 0 0 0 3.33-.45c-5.5-7.38-15.46-9.87-15.46-9.87a68.57 68.57 0 0 1 8.73 8.73zm38.79 3.27c-7.16-7-11.78-6.32-11.78-6.32a6.59 6.59 0 0 1 2.37 3 17.69 17.69 0 0 0 -8.08 2.08 23.38 23.38 0 0 1 9.07 3.79 10 10 0 0 0 -3 .3 17.79 17.79 0 0 1 7.53 4.15c8.28-.18 9.08-5.6 9.08-5.6s-2.07 1.68-5.19-1.4zm34.33 11.18c-.52-1.88 1.56-6.28-.12-7.13-2.52-1.25-3.74 3.95.12 7.16zm-54.19 6.1a16.3 16.3 0 0 0 5.15-.22c-12.15-5.29-13-14.65-13-14.65a11.22 11.22 0 0 0 1.73 12 25.32 25.32 0 0 1 -3.67-1.56c3 6.49 9.78 9.43 9.78 9.43a11 11 0 0 0 8.25-1.82 19.48 19.48 0 0 1 -8.24-3.18z"/><path d="m118.45 57.68a1.25 1.25 0 0 1 -1.68 1.06 6.9 6.9 0 0 1 -.86-.4c1.74-8.47-3.74-11.75-3.74-11.75 6.21 2.41 6.5 8.34 6.28 11.09zm9.84-11a9.86 9.86 0 0 1 -.66 3.17 4.84 4.84 0 0 0 3.37-3.3 3.78 3.78 0 0 0 -2.71.15zm-19-15.15a4.41 4.41 0 0 1 -1.58-2.28 7.26 7.26 0 0 1 1.47.25 6.6 6.6 0 0 0 -3.78-1.87 6 6 0 0 0 2.85 4.72c2.58.32 3.78-.6 4.25-1.13a6.49 6.49 0 0 1 -3.22.33z" fill="#fff"/><g fill="#807f83"><path d="m100.74 77.5h2v.57h-.68v2.33h-.69v-2.33h-.66zm4.34 0-.58 1.5-.62-1.46h-.71v2.9h.63v-1.86l.57 1.28h.25l.56-1.32v1.86h.64v-2.9z"/><path d="m112.17 46.59s3.91 5 2.22 10.65a6.22 6.22 0 0 0 1.52 1.1c1.74-8.47-3.74-11.75-3.74-11.75z"/></g></svg>