<svg xmlns="http://www.w3.org/2000/svg" viewBox="0 0 154.34 102.53"><defs><style>.cls-1{fill:#ba9f67;}.cls-2{fill:#008c99;}.cls-3{fill:#eef6e8;}</style></defs><g id="Layer_2" data-name="Layer 2"><g id="ARTWORK"><path class="cls-1" d="M101.56,52.71C78.7,61.77,71.34,77.14,40.48,73.35c-31-3.81-29.62-32.79-29.62-32.79s10.88,15,28.8,12.23C63.41,49.12,72.25,35,91.42,30.29c41.21-10.19,52.06,28.49,52.06,28.49C136.84,53.53,120.35,45.26,101.56,52.71ZM132.63,30.2S121.78-8.49,80.56,1.71c-19.16,4.75-28,18.83-51.75,22.5C10.88,27,0,12,0,12S-1.41,41,29.63,44.77c30.86,3.79,38.22-11.58,61.08-20.64C109.5,16.68,126,24.94,132.63,30.2Zm21.71,57.16s-10.86-38.68-52.07-28.48c-19.17,4.74-28,18.82-51.76,22.49-17.92,2.77-28.8-12.22-28.8-12.22s-1.42,29,29.63,32.79c30.85,3.78,38.22-11.59,61.07-20.65C131.2,73.85,147.69,82.11,154.34,87.36Z"/><path class="cls-2" d="M88.74,20.66C63.52,31.35,58.88,45.52,28.18,41.19,5.57,38,4,19.63,4,19.63s9.67,10.85,27.82,7.1C53.31,22.3,62,10.37,78.87,5.29,112.52-4.84,126.74,22.9,126.74,22.9,120.15,18.26,101.87,15.09,88.74,20.66Zm48.85,30.82s-14.22-27.74-47.87-17.6C72.86,39,64.17,50.88,42.66,55.31c-18.15,3.75-27.82-7.1-27.82-7.1S16.42,66.58,39,69.77c30.7,4.33,35.35-9.84,60.56-20.53C112.73,43.67,131,46.84,137.59,51.48Zm10.86,28.58s-14.22-27.74-47.88-17.6C83.71,67.54,75,79.46,53.51,83.9c-18.14,3.74-27.82-7.11-27.82-7.11s1.58,18.38,24.2,21.56c30.69,4.33,35.34-9.84,60.55-20.53C123.58,72.25,141.85,75.42,148.45,80.06Z"/><path class="cls-3" d="M126.74,22.9C117,12.28,108,9.66,108,9.66a20.3,20.3,0,0,1,.83,3.13C99.75,6,86,5.33,67.79,16.6,50,27.63,35.7,29.66,35.7,29.66a20.79,20.79,0,0,0,2.54,2.86C11.16,35.18,4,19.63,4,19.63s9.67,10.85,27.82,7.1C53.31,22.3,62,10.37,78.87,5.29,112.52-4.84,126.74,22.9,126.74,22.9Zm-37,11C72.86,39,64.17,50.88,42.66,55.31c-18.15,3.75-27.82-7.1-27.82-7.1S22,63.76,49.09,61.1a21.86,21.86,0,0,1-2.54-2.85s14.3-2,32.09-13.07c18.19-11.27,32-10.55,41.07-3.81a20,20,0,0,0-.83-3.12s9,2.61,18.71,13.23C137.59,51.48,123.37,23.74,89.72,33.88Zm10.85,28.58C83.71,67.54,75,79.46,53.51,83.9c-18.14,3.74-27.82-7.11-27.82-7.11S32.86,92.34,60,89.69a21.26,21.26,0,0,1-2.55-2.86s14.3-2,32.09-13.07c18.19-11.27,32-10.55,41.07-3.81a20,20,0,0,0-.83-3.12s9,2.61,18.72,13.23C148.45,80.06,134.23,52.32,100.57,62.46Z"/><path class="cls-1" d="M144.42,62.22H147v.71h-.84v2.9h-.86v-2.9h-.84Zm5.42,0L149.12,64l-.77-1.82h-.89v3.61h.78V63.57l.71,1.59h.32l.7-1.65v2.32h.8V62.22Z"/></g></g></svg>