<svg xmlns="http://www.w3.org/2000/svg" viewBox="0 0 132.37 132.37"><defs><style>.cls-1{fill:#eef6e8;}.cls-2{fill:#f15d22;}</style></defs><g id="Layer_2" data-name="Layer 2"><g id="ARTWORK"><circle class="cls-1" cx="66.18" cy="66.18" r="66.18" transform="translate(-9.75 120.91) rotate(-80.78)"/><path d="M95.8,55h0l-.15.06c-1.57.53-13,4.23-19.17,2.16h0c.31-4.36,4.14-11.6,8.78-18a12.32,12.32,0,0,0,2.53-7.73,15.19,15.19,0,0,0-3.66-9S78.42,28.1,73.57,32.6c-1.67,1.56-3.25,3-4.46,4-4.3,3.59-11.59,4.45-13.34,4.6l-.39,0-.34.16c-.22.11-.54.28-.93.5l-.66.37a38.08,38.08,0,0,0-10.83,9.27,21.53,21.53,0,0,0-3.68,7,8.27,8.27,0,0,0-.22.94h0c-.19,0-1.14.19-2.44.53l-.5.14a23.9,23.9,0,0,0-3.4,1.25s-4,13.19-12.13,16.51a9.65,9.65,0,0,1-1.68.53S32.1,84,41.19,74.36a6.45,6.45,0,0,1-1.89,5.93c-.49.47-1,1-1.48,1.46A74.79,74.79,0,0,0,28,93.94s-7,4.27-13,8.28a62.49,62.49,0,0,0,51.13,26.52c2,0,3.9-.1,5.81-.27,0-.13.05-.25.07-.37a32.12,32.12,0,0,0,.61-6.41,4.76,4.76,0,0,1,.84,1,10.33,10.33,0,0,0,0-4.48l1.66,1.44h0a35.23,35.23,0,0,0-.2-12.72,8.86,8.86,0,0,1,2.11,2.42c-.1-8.27-4.41-24.53-3.2-29a20.84,20.84,0,0,1,1.27-3C78.77,71,86.37,64.38,95,61.24a9.69,9.69,0,0,0,.65-1.6,8.9,8.9,0,0,0,.46-3A5.77,5.77,0,0,0,95.8,55Z"/><path class="cls-2" d="M128.74,66.18a62.55,62.55,0,0,1-54.26,62A59.18,59.18,0,1,0,4.2,57.89a62.55,62.55,0,0,1,124.54,8.29ZM61.4,44.76a2.73,2.73,0,0,0-2.68-.45,4.36,4.36,0,0,0-1.08.62,6.62,6.62,0,0,0-2.15,3.61,6.6,6.6,0,0,0,4-1.13A6,6,0,0,0,61.4,44.76Z"/><path class="cls-1" d="M99.69,127.09h3v.83h-1v3.37h-1v-3.37h-1Zm6.3,0-.84,2.11-.9-2.11h-1v4.2h.92v-2.63l.82,1.85h.37l.81-1.91v2.69h.94v-4.2Z"/></g></g></svg>