<svg xmlns="http://www.w3.org/2000/svg" viewBox="0 0 144.85 98.65"><defs><style>.cls-1{fill:#c4ced4;}.cls-2{fill:#c8102e;}</style></defs><g id="Layer_2" data-name="Layer 2"><g id="ARTWORK"><path class="cls-1" d="M82.11,98.64a25.9,25.9,0,0,1-4.73-.45,35.21,35.21,0,0,1-14.45-6.78,31.18,31.18,0,0,1-18.18-7.83,17.65,17.65,0,0,1-4-5.23,3.13,3.13,0,0,1-1.6,1.84c-1,.5-1.85.85-2.41,1.08-1.72.7-1.36,3.22-1.36,3.22s-3.32-3-3.32-5c0-1.47,1.45-2.38,2.62-3.06a37.49,37.49,0,0,1-5-8.6C27.88,64.32,31,59.22,34,55.44q-1.25-2-2.33-3.93c-1.33.76-3.12,1.74-4.81,2.53a6.42,6.42,0,0,1-2.6.6,9.85,9.85,0,0,1-1.18,5.3,11,11,0,0,0-.6,1.43,16.79,16.79,0,0,0-.39,4.24A4,4,0,0,1,19,69.45a21.77,21.77,0,0,0-3.77,1c-1.56.46-1.35,3.43-1.35,3.43a8.79,8.79,0,0,1-2.5-5.64c0-2,1.85-3.34,5.09-3.75.13-2.69.55-9.66,1.6-13.5a4.91,4.91,0,0,1,1.82-2.64,30,30,0,0,1,5.91-3.17,17.14,17.14,0,0,0-3.5.25,9.4,9.4,0,0,1-2,.24h-.41c-1,2.64-3,4.2-4.82,5.58A20,20,0,0,0,12.86,53a15.25,15.25,0,0,0-2.54,3.4,3.73,3.73,0,0,1-3.27,1.94H6.79q-1.37-.09-2.67-.09C2.28,58.25,1.35,61,1.35,61s-3.48-7.16.73-8.13a11.74,11.74,0,0,1,2.66-.28c.38,0,.72,0,1,0,4.71-7.45,8-11.09,9.61-12.6a6.1,6.1,0,0,1,3-1.6A24.13,24.13,0,0,1,23,38a40.65,40.65,0,0,1,5.14.34,19.63,19.63,0,0,1,.57-2.21c-1-1.2-2.7-4.07-1.88-9a19.18,19.18,0,0,1-.36-6.37,5.94,5.94,0,0,1,1.29-3.05C27.85,15.5,28.6,7,35,5.21A14.74,14.74,0,0,1,43.72.06,3.49,3.49,0,0,1,44.37,0a3.84,3.84,0,0,1,1.92.52c8.58,2.37,12.6,9.75,13.51,11.68a5,5,0,0,1,2.6,2.58,6.63,6.63,0,0,1-.29,5.58,21.79,21.79,0,0,1-1.6,2.83,9,9,0,0,0-1.12,2.16,1.39,1.39,0,0,0,0,1.09c.74,1.88,5.28.57,5.28.57s-2,4-6.28,4a7.92,7.92,0,0,1-5-1.94,9.12,9.12,0,0,1-3.26-6.45,15.57,15.57,0,0,1,.69-6.06L51,16.1a4.57,4.57,0,0,1-2.2-2.67c-.1-.24-.21-.49-.33-.73A16.34,16.34,0,0,0,46.1,9.15a13.89,13.89,0,0,1-2.77,1.1,10.3,10.3,0,0,1-4.57,7.43,21.2,21.2,0,0,1-.06,6.18c.84,1.08,2.38,3.76,2.23,8.76a54.23,54.23,0,0,1,8.45,2.68,14.24,14.24,0,0,1,1.07-2.37,2.94,2.94,0,0,1,2.47-1.38,3,3,0,0,1,.67.08,17.61,17.61,0,0,1,5.95,2.91,6.52,6.52,0,0,1,2-.43,2,2,0,0,1,1.47.55,5.68,5.68,0,0,1,1.12,1.71,3.28,3.28,0,0,1,.63-.06h.64a33.68,33.68,0,0,1,5,.33,6.11,6.11,0,0,1,2.46,1,43.5,43.5,0,0,1,5.68,4.69,5.66,5.66,0,0,1,3.07,1,41,41,0,0,1,5.58,4.76,18.48,18.48,0,0,1,4.8-1.45,5.65,5.65,0,0,1,.59,0,4,4,0,0,1,1.67.36c.31-.07.68-.13,1.13-.21a25.61,25.61,0,0,1,4-.33,16,16,0,0,1,9.72,2.87,28.82,28.82,0,0,1,7.52-.93,39.44,39.44,0,0,1,9.34,1.18C146.11,54.42,143,67.32,143,67.32s-2.65-4.52-4.45-5.55a5.84,5.84,0,0,1-1.25.14,5.71,5.71,0,0,1-2.43-.55,6.79,6.79,0,0,0-1.66-.52l-.24.36.15.19s2,2.44,4.08,2.44a2.41,2.41,0,0,0,.6-.08l.85-.21.54.67a34.33,34.33,0,0,1,5.71,13.6S136.49,68.36,126,65.24c-2.47,0-10.46-.4-14.88-4.89a17.86,17.86,0,0,1-15.87-3.89,2.77,2.77,0,0,1-.46.22q-.54.21-1.14.39c0,1-.11,2.15-.2,3.06.5,0,1.07-.05,1.6-.05a8.58,8.58,0,0,1,2.08.24c2.82.43,2.51,6.1,2.51,6.1a5.6,5.6,0,0,0-3.26-1h-.06a23.14,23.14,0,0,0-2.92.22,4.87,4.87,0,0,1-.66,0,4.75,4.75,0,0,1-3-1.09,5.39,5.39,0,0,1-.54-.53,11.5,11.5,0,0,1-7.27,3,2.93,2.93,0,0,1-.49.38,12.45,12.45,0,0,1-4.06,1.46,3.05,3.05,0,0,1-.6.06,3.13,3.13,0,0,1-1.63-.45l-.08.21a3.64,3.64,0,0,1-1.73,2,16.51,16.51,0,0,1,2,2.31c6.35,3.9,24.36,4,24.36,4s-3.43,8.58-17.42,8.38c-1.17,0-2.11-.06-2.67-.12a13.69,13.69,0,0,1-1.15.93,23,23,0,0,0,6.8,1,9.1,9.1,0,0,1-1.07,3.08c8,2.25,13.36,1,13.36,1S92.82,98.74,82.11,98.64ZM36.48,67.16a9.73,9.73,0,0,1,1.7,4,8.13,8.13,0,0,0,.33,1.21,15.88,15.88,0,0,0,.68,1.44A17.81,17.81,0,0,1,39,68.06a35.88,35.88,0,0,1,.88-4.33q-.69-.82-1.41-1.77A22.86,22.86,0,0,0,38,64.37,4.87,4.87,0,0,1,36.48,67.16ZM80.23,53.68c.35.29.63.54.85.74a11.11,11.11,0,0,1,2.64-1c0-.14,0-.28.06-.43a31.78,31.78,0,0,0-3-2.06A14.09,14.09,0,0,1,80.23,53.68Zm-10.41-11a18.33,18.33,0,0,1,2,5.76c.05-.41.1-.8.16-1.18a5.31,5.31,0,0,1,1.94-3.35,18.61,18.61,0,0,0-2.83-1.7A7,7,0,0,1,69.82,42.64ZM56.05,38.57a53.73,53.73,0,0,1,7.5,5.24A5.91,5.91,0,0,0,62,41.87a2.68,2.68,0,0,1-.9-2.67A2.14,2.14,0,0,1,58.64,39a12.12,12.12,0,0,0-2.56-1.51C56.05,37.88,56.05,38.28,56.05,38.57Z"/><path d="M143,74a33.74,33.74,0,0,0-4.86-9c-3.16.81-6.07-2.83-6.07-2.83a5.46,5.46,0,0,1-3.36.92,7.68,7.68,0,0,0,3.71-3.73,7.34,7.34,0,0,1,3,.72,4.3,4.3,0,0,0,3.17.21l.18-.06a11.85,11.85,0,0,1,3,3.15c-.89-5.16-5.44-10-16-12.6-8.47-2.07-14.38-.83-16.85-.06-5.73-4.86-14.73-2.39-14.73-2.39h0a2.68,2.68,0,0,0-1.9-.43A17.3,17.3,0,0,0,87,49.72a39.93,39.93,0,0,0-6-5.28,4.27,4.27,0,0,0-2.88-.7,37.69,37.69,0,0,0-5.89-5A4.73,4.73,0,0,0,70.24,38a33,33,0,0,0-5.43-.31,2.32,2.32,0,0,0-1.81.88,5.84,5.84,0,0,0-.42.64,1.3,1.3,0,0,0,.31,1.65,8.42,8.42,0,0,1,2.77,6.74,49.4,49.4,0,0,0-10.94-8.2,13.8,13.8,0,0,1,.29-3.8A17.36,17.36,0,0,1,59.5,38a.83.83,0,0,0,1.15-.07,3.35,3.35,0,0,1,.9-.7,1.87,1.87,0,0,1,1.37-.26,4.42,4.42,0,0,0-.83-1.31c-.52-.52-2.77.46-2.77.46a17.12,17.12,0,0,0-6-3.13,1.54,1.54,0,0,0-1.67.7,14,14,0,0,0-1.36,3.49,53.44,53.44,0,0,0-10.71-3.44c.53-6.93-2.25-9.41-2.25-9.41h0c.77-5-.05-7.26-.05-7.26A9,9,0,0,0,42.05,9.2h0c.88-.22,3.26-.87,4.22-1.82a17,17,0,0,1,3.39,4.72c.73,1.48,1,3,2.78,2.92a7.7,7.7,0,0,0,.83,0,5.33,5.33,0,0,0-1.16,2c-.93,2.88-1.47,8.16,2.13,11,4.34,3.49,7.82.34,7.82.34-2.61.47-4.8-1-3.94-3.43.71-2,1.5-2.44,2.77-5.12,1.52-3.21.2-5.85-2.08-6.52h0c0-.06-3.66-9-13.06-11.49h0A2.44,2.44,0,0,0,44,1.38a13.47,13.47,0,0,0-8.16,5C29.07,7.88,29.1,18.15,29.1,18.15h0a4.54,4.54,0,0,0-1.33,2.71A17.74,17.74,0,0,0,28.2,27c-1.13,6.24,2.06,8.75,2.06,8.75a17.81,17.81,0,0,0-1,4.07,33.2,33.2,0,0,0-10.63-.13A4.63,4.63,0,0,0,16.27,41c-1.6,1.54-5,5.27-9.83,13a13.4,13.4,0,0,0-4,.15c-1.81.43-.72,4.23-.72,4.23.81-1.19.89-1.41,2.38-1.48.77,0,1.9,0,2.82.09a2.37,2.37,0,0,0,2.26-1.23,16.85,16.85,0,0,1,2.76-3.7c2.41-2.41,6.13-3.84,7-8a5.06,5.06,0,0,0,3.09,0c1.81-.41,4.56-.22,7.54-.32.12.39.28.81.46,1.26a34.06,34.06,0,0,0-9.31,4.39,3.54,3.54,0,0,0-1.32,1.9C18.07,56,17.75,65.7,17.75,65.7s-5,.14-5,2.51a6.29,6.29,0,0,0,.55,2.8,2.72,2.72,0,0,1,1.22-1.72,21.62,21.62,0,0,1,4.23-1.16,2.58,2.58,0,0,0,2.05-2.52A18.7,18.7,0,0,1,21.21,61c.67-2.14,2.56-4.08,1.38-8a4.73,4.73,0,0,0,3.72-.19c2.22-1,4.58-2.39,5.9-3.18,1,1.88,2.19,3.9,3.47,5.9-2,2.45-6.56,8.42-4.83,11.69a39.17,39.17,0,0,0,5.79,9.48c-.62.63-3.25,1.57-3.25,2.73A5,5,0,0,0,34.56,82a2.67,2.67,0,0,1,1.68-2c.61-.23,1.49-.64,2.3-1a1.79,1.79,0,0,0,.63-2.68,14.59,14.59,0,0,1-1.9-3.38c-.63-1.52-.45-3.93-2.85-6a3.78,3.78,0,0,0,2.22-2.79,22.6,22.6,0,0,1,1.45-5c1.11,1.56,2.23,3,3.32,4.3a33.69,33.69,0,0,0-1,4.84,16.13,16.13,0,0,0,5.27,14.32,29.56,29.56,0,0,0,17.78,7.52,33.85,33.85,0,0,0,14.2,6.78c11,2.06,16.57-4,16.57-4-6.3,1-12.42-2.09-12.42-2.09a4.38,4.38,0,0,0,1.73-2.32,21.7,21.7,0,0,1-8.14-2,15.3,15.3,0,0,0,3.69-2.62s12,1.73,17.77-5.52c0,0-15.93-.08-22.53-4.39a15.91,15.91,0,0,0-3.61-3.74,11.75,11.75,0,0,0,1.89-.71,2.31,2.31,0,0,0,1.16-1.28l.68-1.83,1.24.86a1.83,1.83,0,0,0,1.4.3,11.18,11.18,0,0,0,3.6-1.29,1.78,1.78,0,0,0,.59-.6c4.83.29,8.19-3.89,8.19-3.89l0,0a3.38,3.38,0,0,0,1.07,1.75,3.41,3.41,0,0,0,2.64.74,28.32,28.32,0,0,1,3.09-.23,4.13,4.13,0,0,1,1.83.39l.24.11a3.62,3.62,0,0,0-1.74-3c-.83-.34-4.68,0-4.68,0A51.41,51.41,0,0,0,92.26,56a15.54,15.54,0,0,0,2-.6,1.76,1.76,0,0,0,.91-.83h0a16.42,16.42,0,0,0,16.34,4.21c4,4.8,12.36,5.08,14.64,5.07A45.06,45.06,0,0,1,143,74ZM70.7,50c-.77-6.26-3.47-8.65-3.47-8.65A4.9,4.9,0,0,0,71,40.66a22.07,22.07,0,0,1,5.44,3.45c-.27.09-.53.18-.76.28a4,4,0,0,0-2.36,3c-.28,1.79-.37,3.46-.37,3.46l.24.14C72.42,50.69,71.59,50.35,70.7,50Zm7.94,4.14a12.05,12.05,0,0,0,.76-5.46,32.06,32.06,0,0,1,5.89,3.79,8.09,8.09,0,0,0-.3,2.12,10,10,0,0,0-4.23,1.54L80.7,56A12.77,12.77,0,0,0,78.64,54.16ZM58.81,13.26h0Z"/><path class="cls-2" d="M109.15,56.05s-2.14-3.67-5.05-4.39c-2.22-.55-7.47-.12-8.61,0A7.21,7.21,0,0,0,95.24,50a35.41,35.41,0,0,1,8.45.06C107.69,50.73,109.15,56.05,109.15,56.05ZM93.74,49.81a.89.89,0,0,0-.83-.39,16,16,0,0,0-4.06,1,1.27,1.27,0,0,0-.67.6,17.48,17.48,0,0,0-1.24,4.62h0a5.9,5.9,0,0,1,1,1.11h0a19.16,19.16,0,0,1,1-5,1,1,0,0,1,.68-.63A17.2,17.2,0,0,1,94,50.27,1.53,1.53,0,0,0,93.74,49.81ZM35.55,25.21a2.59,2.59,0,0,0-.94.12.51.51,0,0,0-.29.71c1.54,3,.9,8,.9,8a5.75,5.75,0,0,1,2-.61,14.57,14.57,0,0,0-1.29-8A.48.48,0,0,0,35.55,25.21Zm19.36-.73c.22,3.22,2.63,3.5,2.63,3.5a3.19,3.19,0,0,1-1.1-3.38c.71-2.08,1.44-2.54,2.77-5.25s-.41-3.86-.41-3.86C58.65,17,54.7,21.26,54.91,24.48Zm26.64,34.7a15.22,15.22,0,0,1,4.9-2,2.23,2.23,0,0,0-.83-.79,1.23,1.23,0,0,0-.94-.13,15.22,15.22,0,0,0-3.41,1.55C81.39,58.31,81.48,58.75,81.55,59.18ZM64.75,67s-3.18-3.93-10.23-5.36a13.84,13.84,0,0,0-9.09,1.53S51.21,73.85,61,77.62a58.53,58.53,0,0,0,31,2.47s-12.22.19-20.59-3.51c0,0-2.85-9.35-19-9.22a12.46,12.46,0,0,1-3.71-4,25.42,25.42,0,0,0,3.93,2A34.49,34.49,0,0,1,64.75,67M80,90a17.83,17.83,0,0,1-6.54-2.53A39,39,0,0,1,69.07,89a26.12,26.12,0,0,0,17,5.31,23.31,23.31,0,0,1-8.52-3.2A10.72,10.72,0,0,0,80,90ZM67.17,60.8a5.69,5.69,0,0,1-2.23,1.36c6.4.81,7.24-2,7.24-2-1.29-2.55-4.22-4.6-6.44-5.87a8.13,8.13,0,0,0-7.4-.34,14.6,14.6,0,0,0-3.72,2.46A13.42,13.42,0,0,1,67.17,60.8Zm5.44-7a25,25,0,0,0,2,5.57,4.23,4.23,0,0,0,4.23-1.9S76,54.44,72.61,53.79Zm38.18.31v0s13.08-1.56,24.78,3.62c0,0-8.17-7-23.74-5.56A1.3,1.3,0,0,0,110.79,54.1ZM35.65,22.84a27.23,27.23,0,0,0,.1-4,.68.68,0,0,0-.62-.63,5.06,5.06,0,0,0-1,0,.66.66,0,0,0-.58.71,19.94,19.94,0,0,1-.2,4.18A6.51,6.51,0,0,1,35.65,22.84Zm-.82-8a3,3,0,0,0,2.52-.14c1.07-.61,2.2-2.9,2.66-4.39a.82.82,0,0,0-.52-1h0a.48.48,0,0,0-.59.28C38.39,10.68,36.82,14.05,34.83,14.81Zm5.17-7a8.77,8.77,0,0,0,5.37-2.24,1.16,1.16,0,0,0,.33-1,3.42,3.42,0,0,0-.17-.69,4.58,4.58,0,0,0-1.29.91A16.9,16.9,0,0,1,40,7.78ZM51.65,9.65c.8,1.48,1.34,2.41,1.64,2.91a1.05,1.05,0,0,0,.88.51,4.76,4.76,0,0,0,2-.4c-2.43-5.35-8.63-7.73-8.63-7.73A19.26,19.26,0,0,1,51.65,9.65ZM68.38,65.21a.81.81,0,0,0,.48.54A3.34,3.34,0,0,1,69.92,65,1.53,1.53,0,0,1,71,64.84a4,4,0,0,1,1.43.63,4.83,4.83,0,0,0-1.75-1.54,1.17,1.17,0,0,0-1-.1,5.2,5.2,0,0,0-.91.37A.87.87,0,0,0,68.38,65.21Zm10.13-3.75a4,4,0,0,0-1,.26,1,1,0,0,0-.59.87,4.66,4.66,0,0,0,.13,1.34s.07-.48.19-1a.91.91,0,0,1,.69-.66,3.33,3.33,0,0,1,1.6,0,.64.64,0,0,0-.15-.49A1,1,0,0,0,78.51,61.46ZM45.32,40.22c.45.29.9.56,1.37.88,0,0-3.39.53-4.54,3.17h0A8.85,8.85,0,0,1,44,43a26.38,26.38,0,0,1,8.68-2c-.88-.52-1.73-1-2.55-1.39A42,42,0,0,0,45.32,40.22Zm9.55,2.12a43,43,0,0,0-5.54.69l1,.78a9.3,9.3,0,0,0-2.45,1.12,5.14,5.14,0,0,0-2.08,2.48,9.88,9.88,0,0,1,2.42-1.8,26.62,26.62,0,0,1,8.54-2C56.09,43.18,55.48,42.75,54.87,42.34ZM42.3,38.46s-2.86,1-3.64,2.64h0a7.8,7.8,0,0,1,1.25-.77,24.68,24.68,0,0,1,7.73-1.9c-1.37-.59-2.63-1-3.73-1.41-1,.12-2.21.3-3.36.55C41.09,37.84,41.67,38.13,42.3,38.46Zm16.37,6.69a39,39,0,0,0-6,.84c.18.18.37.36.58.59,0,0-.78.4-1.91,1.14a8.78,8.78,0,0,0-2.77,3.52,12,12,0,0,1,3.74-3,25.47,25.47,0,0,1,7.78-1.91Q59.38,45.72,58.67,45.15ZM37.8,36.36a6.43,6.43,0,0,0-2.7,1.69,7.16,7.16,0,0,1,.65-.37,20,20,0,0,1,5-1.51,11,11,0,0,0-3.48,0ZM55.53,49.12c.13.16.27.31.39.48A14.16,14.16,0,0,0,51.3,52h0a37.21,37.21,0,0,1,11.83-2.85c-.41-.41-.81-.8-1.22-1.18A32.91,32.91,0,0,0,55.53,49.12Z"/><path class="cls-1" d="M58.18,93.21H59.8v.45h-.54v1.85h-.55V93.66h-.53Zm3.46,0-.46,1.16-.5-1.16h-.56v2.3h.5V94.07l.45,1h.2l.45-1v1.47h.51v-2.3Z"/></g></g></svg>