<svg xmlns="http://www.w3.org/2000/svg" viewBox="0 0 150.84 88.99"><defs><style>.cls-1{fill:none;}.cls-2{fill:#c8102e;}.cls-3{fill:#f5d130;}</style></defs><g id="Layer_2" data-name="Layer 2"><g id="ARTWORK"><path class="cls-1" d="M2.41,89a2.42,2.42,0,0,1-.82-4.69l35.82-13L34.88,71C23,69.51,10.67,68,9.15,42.53A2.41,2.41,0,0,1,11.07,40a2.81,2.81,0,0,1,.49-.05,2.44,2.44,0,0,1,2.28,1.6c4.34,12.09,8.81,13.72,12.61,13.72a34.57,34.57,0,0,0,8.75-1.72c3.86-1.07,8.22-2.29,12.94-2.29.4,0,.81,0,1.21,0L33.59,14.16a2.42,2.42,0,0,1,4-2.63l27.18,28c-.35-1.73-.78-3.45-1.2-5.14C60.65,22.75,57.67,10.72,80.92.21a2.49,2.49,0,0,1,1-.21l.32,0a2.42,2.42,0,0,1,1.49,4.26C70.51,15.54,74.1,20.42,80.05,28.51a48.22,48.22,0,0,1,6.64,11.08L116,9.84a2.42,2.42,0,0,1,3.93,2.68l-16.6,36.72c1.16-.83,2.29-1.69,3.4-2.55,5.21-4,10.59-8.08,17.51-8.08,6.33,0,12.92,3.31,20.76,10.43a2.33,2.33,0,0,1,.69,1.08,2.42,2.42,0,0,1-2.26,3.27,2.48,2.48,0,0,1-1.06-.24c-5-2.46-9-3.65-12.16-3.65-5.48,0-7.84,3.6-11.53,10-2.06,3.55-4.34,7.48-7.78,10.78l38.34,14.08a2.41,2.41,0,0,1-.82,4.68Z"/><path class="cls-1" d="M49.81,63.4l-.34-.14.34.14Z"/><path class="cls-1" d="M81.46,2.76l.46-.34-.46.34Z"/><path class="cls-2" d="M106.52,79.29l41.9,7.28h-.31l-43.1.1A29,29,0,0,0,106.52,79.29Zm-4.18-17.14a28.74,28.74,0,0,1,3.6,9l.14-.1C121,61,116.75,37.94,143.44,51c-.1-.1-.2-.18-.3-.27l.25.12C115.2,34.48,118.3,55.39,102.34,62.15ZM54.06,86.69H49a28.82,28.82,0,0,1-1.68-6.06L2.42,86.57,46.31,70.62l1,.34a28.47,28.47,0,0,1,2.45-7.56h0l-.34-.14L49,63l-.46-.17L48,62.68l-.43-.14L47,62.37l-.39-.11-.56-.15L45.72,62l-.61-.13-.19,0a25.17,25.17,0,0,0-3.39-.39h0l-.79,0H38.87l-.79,0h0c-2.48.13-4.84.44-7.1.59l-.71,0h0l-.61,0H28l-.45,0h-.27l-.42,0-.29,0-.4,0-.29-.05-.4-.07-.3-.06-.38-.09-.3-.09-.37-.11-.3-.1-.37-.13-.3-.13L22.79,61l-.3-.15-.35-.18-.31-.18c-.2-.11-.39-.24-.58-.37l-.37-.24-.3-.23-.33-.26L20,59.1l-.31-.29a4.11,4.11,0,0,1-.3-.29L19,58.2c-.1-.1-.19-.21-.29-.32l-.31-.35-.29-.36c-.1-.13-.21-.25-.31-.39s-.19-.25-.28-.39l-.3-.42L17,55.54c-.1-.15-.2-.3-.29-.46s-.19-.31-.28-.46l-.3-.51-.27-.5-.29-.55-.27-.53-.29-.6-.26-.57-.29-.66c-.08-.2-.17-.4-.26-.6l-.28-.72-.25-.63c-.1-.26-.19-.52-.29-.79l-.24-.65-.3-.89c-.07-.22-.14-.43-.22-.65s-.22-.7-.33-1.06l-.18-.58c-.17-.56-.33-1.14-.5-1.74,10.2,28.43,23.55,7.79,41.66,11.86A22.58,22.58,0,0,1,56,55l.74-.69v0l.9-.73,1.23-1,0,0c.76-.55,1.55-1,2.35-1.52-9.72-14.54-25.37-37.9-25.37-37.9L68,46.36c0,.63,0,1.26,0,1.89a28.69,28.69,0,0,1,7-1.07c4.94-20.89-21.34-23.63,6.51-44.42h0l.46-.34-.32.28.56-.26C59.76,21.52,82,27,85.54,44.2A22.27,22.27,0,0,1,86,49.06a29.72,29.72,0,0,1,5.45,2.77l26.27-40.29,0,.06L97.92,55.37l-.91.41c-.62-.55-1.26-1.09-1.94-1.6v0l-1-.66-1.31-.9,0,0c-.39-.24-.78-.46-1.18-.68a28.75,28.75,0,0,1,11.23,20.65,29.15,29.15,0,0,1-.24,6.61,32.5,32.5,0,0,1-15.29-9,19.5,19.5,0,0,1-2.27,6c6,4.65,13.5,4.49,17.39,4a29.59,29.59,0,0,1-2,6.5h-37l.43,0A34.34,34.34,0,0,0,52.34,67.55,24.87,24.87,0,0,0,51.22,75,25.34,25.34,0,0,0,54.06,86.69ZM52.34,67.52c10.5,3.76,15.12,12,17.15,18.22,7.57-1.79,12.26-5.52,14.87-10-5-3.85-8.88-11-8.88-23.91A51.47,51.47,0,0,0,86.63,69.79,23.86,23.86,0,0,0,84,53.59a22.49,22.49,0,0,0-9.93-2.28A22.75,22.75,0,0,0,52.34,67.52Z"/><path class="cls-3" d="M56,55a22.58,22.58,0,0,0-2.73-.79L35.93,13.47l-.11-.25s15.65,23.36,25.37,37.9c-.8.47-1.59,1-2.35,1.52l0,0-1.23,1-.9.73v0ZM2.42,86.57h.31L49,86.69a28.82,28.82,0,0,1-1.68-6.06ZM106.51,75a29.4,29.4,0,0,1,0,4.3l41.9,7.28L106.08,71l-.14.1A30.79,30.79,0,0,1,106.51,75ZM91.46,51.83l26.27-40.29L85.54,44.2A22.27,22.27,0,0,1,86,49.06,29.72,29.72,0,0,1,91.46,51.83ZM49.81,63.4l-.34-.14L49,63l-.46-.17L48,62.68l-.43-.14L47,62.37l-.39-.11-.56-.15L45.72,62l-.61-.13-.19,0a25.17,25.17,0,0,0-3.39-.39h0l-.79,0H38.87l-.79,0h0c-2.48.13-4.84.44-7.1.59l-.71,0h0l-.61,0H28l-.45,0h-.27l-.42,0-.29,0-.4,0-.29-.05-.4-.07-.3-.06-.38-.09-.3-.09-.37-.11-.3-.1-.37-.13-.3-.13L22.79,61l-.3-.15-.35-.18-.31-.18c-.2-.11-.39-.24-.58-.37l-.37-.24-.3-.23-.33-.26L20,59.1l-.31-.29a4.11,4.11,0,0,1-.3-.29L19,58.2c-.1-.1-.19-.21-.29-.32l-.31-.35-.29-.36c-.1-.13-.21-.25-.31-.39s-.19-.25-.28-.39l-.3-.42L17,55.54c-.1-.15-.2-.3-.29-.46s-.19-.31-.28-.46l-.3-.51-.27-.5-.29-.55-.27-.53-.29-.6-.26-.57-.29-.66c-.08-.2-.17-.4-.26-.6l-.28-.72-.25-.63c-.1-.26-.19-.52-.29-.79l-.24-.65-.3-.89c-.07-.22-.14-.43-.22-.65s-.22-.7-.33-1.06l-.18-.58c-.17-.56-.33-1.14-.5-1.74C13.4,73.12,30.69,65.78,46.31,70.62l1,.34A28.47,28.47,0,0,1,49.81,63.4ZM75,47.18c4.94-20.89-21.34-23.63,6.51-44.42l.46-.34c-28.86,13-14.25,27-13.93,43.94,0,.63,0,1.26,0,1.89A28.69,28.69,0,0,1,75,47.18Zm27.39,15c16-6.76,12.86-27.67,41-11.32-23.25-21.1-30.31-2.65-45.47,4.54l-.91.41A28.89,28.89,0,0,1,102.34,62.15Zm-50,5.4A24.87,24.87,0,0,0,51.22,75a25.34,25.34,0,0,0,2.84,11.69h9.29l.43,0A34.34,34.34,0,0,0,52.34,67.55ZM69.49,85.74c7.57-1.79,12.26-5.52,14.87-10-5-3.85-8.88-11-8.88-23.91A51.47,51.47,0,0,0,86.63,69.79,23.86,23.86,0,0,0,84,53.59a22.49,22.49,0,0,0-9.93-2.28A22.75,22.75,0,0,0,52.34,67.52C62.84,71.28,67.46,79.53,69.49,85.74Z"/><path d="M106.51,75a30.79,30.79,0,0,0-.57-3.85A28.6,28.6,0,0,0,97,55.78c-.62-.55-1.26-1.09-1.94-1.6v0l-1-.66-1.31-.9,0,0c-.39-.24-.78-.46-1.18-.68a28.75,28.75,0,0,1,11.23,20.65,29.15,29.15,0,0,1-.24,6.61,32.5,32.5,0,0,1-15.29-9,19.5,19.5,0,0,1-2.27,6c6,4.65,13.5,4.49,17.39,4a29.59,29.59,0,0,1-2,6.5H105a29,29,0,0,0,1.51-7.39A29.4,29.4,0,0,0,106.51,75Z"/><path class="cls-3" d="M114.5,68.06h1.77v.5h-.59v2h-.6v-2h-.58Zm3.78,0-.5,1.27-.54-1.27h-.62v2.53h.55V69l.49,1.11h.22l.49-1.15v1.62h.56V68.06Z"/></g></g></svg>